  0
SECTION
  2
HEADER
  9
$ACADVER
  1
AC1009
  9
$EXTMIN
 10
0.0
 20
0.0
 30
0.0
  9
$EXTMAX
 10
1000.0
 20
1000.0
 30
0.0
  9
$FILLMODE
 70
 0
  9
$SPLFRAME
 70
 1
  0
ENDSEC
  0
SECTION
  2
TABLES
  0
TABLE
  2
LAYER
 70
1
  0
LAYER
  2
0
 70
     0
 62
     7
  6
CONTINUOUS
  0
ENDTAB
  0
ENDSEC
  0
SECTION
  2
ENTITIES
  0
LINE
  8
0
 62
     0
 10
0.14056
 20
139.589
 30
0.0
 11
139.587
 21
139.589
 31
0.0
  0
LINE
  8
0
 62
     0
 10
139.587
 20
139.589
 30
0.0
 11
139.587
 21
0.141938
 31
0.0
  0
LINE
  8
0
 62
     0
 10
139.587
 20
0.141938
 30
0.0
 11
0.14056
 21
0.141938
 31
0.0
  0
LINE
  8
0
 62
     0
 10
0.14056
 20
0.141938
 30
0.0
 11
0.14056
 21
139.589
 31
0.0
  0
LINE
  8
0
 62
     0
 10
40.5144
 20
75.1582
 30
0.0
 11
39.8985
 21
72.1085
 31
0.0
  0
LINE
  8
0
 62
     0
 10
39.8985
 20
72.1085
 30
0.0
 11
38.2199
 21
69.6186
 31
0.0
  0
LINE
  8
0
 62
     0
 10
38.2199
 20
69.6186
 30
0.0
 11
35.7283
 21
67.9401
 31
0.0
  0
LINE
  8
0
 62
     0
 10
35.7283
 20
67.9401
 30
0.0
 11
32.6802
 21
67.3241
 31
0.0
  0
LINE
  8
0
 62
     0
 10
32.6802
 20
67.3241
 30
0.0
 11
29.6306
 21
67.9401
 31
0.0
  0
LINE
  8
0
 62
     0
 10
29.6306
 20
67.9401
 30
0.0
 11
27.1405
 21
69.6186
 31
0.0
  0
LINE
  8
0
 62
     0
 10
27.1405
 20
69.6186
 30
0.0
 11
25.4606
 21
72.1085
 31
0.0
  0
LINE
  8
0
 62
     0
 10
25.4606
 20
72.1085
 30
0.0
 11
24.846
 21
75.1582
 31
0.0
  0
LINE
  8
0
 62
     0
 10
24.846
 20
75.1582
 30
0.0
 11
25.4606
 21
78.2077
 31
0.0
  0
LINE
  8
0
 62
     0
 10
25.4606
 20
78.2077
 30
0.0
 11
27.1405
 21
80.6979
 31
0.0
  0
LINE
  8
0
 62
     0
 10
27.1405
 20
80.6979
 30
0.0
 11
29.6306
 21
82.3778
 31
0.0
  0
LINE
  8
0
 62
     0
 10
29.6306
 20
82.3778
 30
0.0
 11
32.6802
 21
82.9924
 31
0.0
  0
LINE
  8
0
 62
     0
 10
32.6802
 20
82.9924
 30
0.0
 11
35.7283
 21
82.3778
 31
0.0
  0
LINE
  8
0
 62
     0
 10
35.7283
 20
82.3778
 30
0.0
 11
38.2199
 21
80.6979
 31
0.0
  0
LINE
  8
0
 62
     0
 10
38.2199
 20
80.6979
 30
0.0
 11
39.8985
 21
78.2077
 31
0.0
  0
LINE
  8
0
 62
     0
 10
39.8985
 20
78.2077
 30
0.0
 11
40.5144
 21
75.1582
 31
0.0
  0
LINE
  8
0
 62
     0
 10
40.6562
 20
45.9535
 30
0.0
 11
40.0403
 21
42.9038
 31
0.0
  0
LINE
  8
0
 62
     0
 10
40.0403
 20
42.9038
 30
0.0
 11
38.3603
 21
40.4139
 31
0.0
  0
LINE
  8
0
 62
     0
 10
38.3603
 20
40.4139
 30
0.0
 11
35.8704
 21
38.7339
 31
0.0
  0
LINE
  8
0
 62
     0
 10
35.8704
 20
38.7339
 30
0.0
 11
32.8208
 21
38.118
 31
0.0
  0
LINE
  8
0
 62
     0
 10
32.8208
 20
38.118
 30
0.0
 11
29.7711
 21
38.7339
 31
0.0
  0
LINE
  8
0
 62
     0
 10
29.7711
 20
38.7339
 30
0.0
 11
27.281
 21
40.4139
 31
0.0
  0
LINE
  8
0
 62
     0
 10
27.281
 20
40.4139
 30
0.0
 11
25.6012
 21
42.9038
 31
0.0
  0
LINE
  8
0
 62
     0
 10
25.6012
 20
42.9038
 30
0.0
 11
24.9866
 21
45.9535
 31
0.0
  0
LINE
  8
0
 62
     0
 10
24.9866
 20
45.9535
 30
0.0
 11
25.6012
 21
49.003
 31
0.0
  0
LINE
  8
0
 62
     0
 10
25.6012
 20
49.003
 30
0.0
 11
27.281
 21
51.4932
 31
0.0
  0
LINE
  8
0
 62
     0
 10
27.281
 20
51.4932
 30
0.0
 11
29.7711
 21
53.1731
 31
0.0
  0
LINE
  8
0
 62
     0
 10
29.7711
 20
53.1731
 30
0.0
 11
32.8208
 21
53.7877
 31
0.0
  0
LINE
  8
0
 62
     0
 10
32.8208
 20
53.7877
 30
0.0
 11
35.8704
 21
53.1731
 31
0.0
  0
LINE
  8
0
 62
     0
 10
35.8704
 20
53.1731
 30
0.0
 11
38.3603
 21
51.4932
 31
0.0
  0
LINE
  8
0
 62
     0
 10
38.3603
 20
51.4932
 30
0.0
 11
40.0403
 21
49.003
 31
0.0
  0
LINE
  8
0
 62
     0
 10
40.0403
 20
49.003
 30
0.0
 11
40.6562
 21
45.9535
 31
0.0
  0
ENDSEC
  0
EOF
