  0
SECTION
  2
HEADER
  9
$ACADVER
  1
AC1009
  9
$EXTMIN
 10
0.0
 20
0.0
 30
0.0
  9
$EXTMAX
 10
1000.0
 20
1000.0
 30
0.0
  9
$FILLMODE
 70
 0
  9
$SPLFRAME
 70
 1
  0
ENDSEC
  0
SECTION
  2
TABLES
  0
TABLE
  2
LAYER
 70
1
  0
LAYER
  2
0
 70
     0
 62
     7
  6
CONTINUOUS
  0
ENDTAB
  0
ENDSEC
  0
SECTION
  2
ENTITIES
  0
LINE
  8
0
 62
     0
 10
0.14056
 20
139.56
 30
0.0
 11
139.56
 21
139.56
 31
0.0
  0
LINE
  8
0
 62
     0
 10
139.56
 20
139.56
 30
0.0
 11
139.56
 21
0.14056
 31
0.0
  0
LINE
  8
0
 62
     0
 10
139.56
 20
0.14056
 30
0.0
 11
0.14056
 21
0.14056
 31
0.0
  0
LINE
  8
0
 62
     0
 10
0.14056
 20
0.14056
 30
0.0
 11
0.14056
 21
139.56
 31
0.0
  0
LINE
  8
0
 62
     0
 10
45.5785
 20
88.1489
 30
0.0
 11
115.146
 21
88.1489
 31
0.0
  0
LINE
  8
0
 62
     0
 10
115.146
 20
88.1489
 30
0.0
 11
115.146
 21
0.14056
 31
0.0
  0
LINE
  8
0
 62
     0
 10
115.146
 20
0.14056
 30
0.0
 11
45.5785
 21
0.14056
 31
0.0
  0
LINE
  8
0
 62
     0
 10
45.5785
 20
0.14056
 30
0.0
 11
45.5785
 21
88.1489
 31
0.0
  0
LINE
  8
0
 62
     0
 10
40.5007
 20
75.1431
 30
0.0
 11
39.8847
 21
72.0947
 31
0.0
  0
LINE
  8
0
 62
     0
 10
39.8847
 20
72.0947
 30
0.0
 11
38.2062
 21
69.6034
 31
0.0
  0
LINE
  8
0
 62
     0
 10
38.2062
 20
69.6034
 30
0.0
 11
35.7145
 21
67.9249
 31
0.0
  0
LINE
  8
0
 62
     0
 10
35.7145
 20
67.9249
 30
0.0
 11
32.6664
 21
67.3089
 31
0.0
  0
LINE
  8
0
 62
     0
 10
32.6664
 20
67.3089
 30
0.0
 11
29.6168
 21
67.9249
 31
0.0
  0
LINE
  8
0
 62
     0
 10
29.6168
 20
67.9249
 30
0.0
 11
27.1267
 21
69.6034
 31
0.0
  0
LINE
  8
0
 62
     0
 10
27.1267
 20
69.6034
 30
0.0
 11
25.4468
 21
72.0947
 31
0.0
  0
LINE
  8
0
 62
     0
 10
25.4468
 20
72.0947
 30
0.0
 11
24.8322
 21
75.1431
 31
0.0
  0
LINE
  8
0
 62
     0
 10
24.8322
 20
75.1431
 30
0.0
 11
25.4468
 21
78.1925
 31
0.0
  0
LINE
  8
0
 62
     0
 10
25.4468
 20
78.1925
 30
0.0
 11
27.1267
 21
80.6827
 31
0.0
  0
LINE
  8
0
 62
     0
 10
27.1267
 20
80.6827
 30
0.0
 11
29.6168
 21
82.3627
 31
0.0
  0
LINE
  8
0
 62
     0
 10
29.6168
 20
82.3627
 30
0.0
 11
32.6664
 21
82.9772
 31
0.0
  0
LINE
  8
0
 62
     0
 10
32.6664
 20
82.9772
 30
0.0
 11
35.7145
 21
82.3627
 31
0.0
  0
LINE
  8
0
 62
     0
 10
35.7145
 20
82.3627
 30
0.0
 11
38.2062
 21
80.6827
 31
0.0
  0
LINE
  8
0
 62
     0
 10
38.2062
 20
80.6827
 30
0.0
 11
39.8847
 21
78.1925
 31
0.0
  0
LINE
  8
0
 62
     0
 10
39.8847
 20
78.1925
 30
0.0
 11
40.5007
 21
75.1431
 31
0.0
  0
LINE
  8
0
 62
     0
 10
40.6411
 20
45.9384
 30
0.0
 11
40.0251
 21
42.89
 31
0.0
  0
LINE
  8
0
 62
     0
 10
40.0251
 20
42.89
 30
0.0
 11
38.3466
 21
40.3987
 31
0.0
  0
LINE
  8
0
 62
     0
 10
38.3466
 20
40.3987
 30
0.0
 11
35.8553
 21
38.7202
 31
0.0
  0
LINE
  8
0
 62
     0
 10
35.8553
 20
38.7202
 30
0.0
 11
32.807
 21
38.1042
 31
0.0
  0
LINE
  8
0
 62
     0
 10
32.807
 20
38.1042
 30
0.0
 11
29.7574
 21
38.7202
 31
0.0
  0
LINE
  8
0
 62
     0
 10
29.7574
 20
38.7202
 30
0.0
 11
27.2673
 21
40.3987
 31
0.0
  0
LINE
  8
0
 62
     0
 10
27.2673
 20
40.3987
 30
0.0
 11
25.5874
 21
42.89
 31
0.0
  0
LINE
  8
0
 62
     0
 10
25.5874
 20
42.89
 30
0.0
 11
24.9728
 21
45.9384
 31
0.0
  0
LINE
  8
0
 62
     0
 10
24.9728
 20
45.9384
 30
0.0
 11
25.5874
 21
48.9878
 31
0.0
  0
LINE
  8
0
 62
     0
 10
25.5874
 20
48.9878
 30
0.0
 11
27.2673
 21
51.478
 31
0.0
  0
LINE
  8
0
 62
     0
 10
27.2673
 20
51.478
 30
0.0
 11
29.7574
 21
53.158
 31
0.0
  0
LINE
  8
0
 62
     0
 10
29.7574
 20
53.158
 30
0.0
 11
32.807
 21
53.7725
 31
0.0
  0
LINE
  8
0
 62
     0
 10
32.807
 20
53.7725
 30
0.0
 11
35.8553
 21
53.158
 31
0.0
  0
LINE
  8
0
 62
     0
 10
35.8553
 20
53.158
 30
0.0
 11
38.3466
 21
51.478
 31
0.0
  0
LINE
  8
0
 62
     0
 10
38.3466
 20
51.478
 30
0.0
 11
40.0251
 21
48.9878
 31
0.0
  0
LINE
  8
0
 62
     0
 10
40.0251
 20
48.9878
 30
0.0
 11
40.6411
 21
45.9384
 31
0.0
  0
ENDSEC
  0
EOF
