<!-- Created with Inkscape (http://www.inkscape.org/) --><svg xmlns:dc="http://purl.org/dc/elements/1.1/" xmlns:cc="http://creativecommons.org/ns#" xmlns:rdf="http://www.w3.org/1999/02/22-rdf-syntax-ns#" xmlns:svg="http://www.w3.org/2000/svg" xmlns="http://www.w3.org/2000/svg" xmlns:xlink="http://www.w3.org/1999/xlink" xmlns:sodipodi="http://sodipodi.sourceforge.net/DTD/sodipodi-0.dtd" xmlns:inkscape="http://www.inkscape.org/namespaces/inkscape" width="24in" height="24in" viewBox="0 0 2160.0001 2160" id="svg2" version="1.1" inkscape:version="0.91 r13725" sodipodi:docname="Push Button Module.tar" inkscape:export-filename="/Users/onvelocity/concierge/faceplate/prototype/Push Button Module.png" inkscape:export-xdpi="90" inkscape:export-ydpi="90">
  <defs id="defs4"/>
  <sodipodi:namedview id="base" pagecolor="#ffffff" bordercolor="#666666" borderopacity="1.0" inkscape:pageopacity="0.0" inkscape:pageshadow="2" inkscape:zoom="1" inkscape:cx="986" inkscape:cy="1040" inkscape:document-units="in" inkscape:current-layer="g4398" showgrid="false" inkscape:window-width="1680" inkscape:window-height="951" inkscape:window-x="0" inkscape:window-y="1" inkscape:window-maximized="1" units="in" fit-margin-top="0" fit-margin-left="0" fit-margin-right="0" fit-margin-bottom="0" width="24in"/>
  <metadata id="metadata7">
    <rdf:RDF>
      <cc:Work rdf:about="">
        <dc:format>image/svg+xml</dc:format>
        <dc:type rdf:resource="http://purl.org/dc/dcmitype/StillImage"/>
        <dc:title/>
      </cc:Work>
    </rdf:RDF>
  </metadata>
  <svg:g style="display:inline;opacity:1" transform="translate(-99.5,1555.7093)" id="g5049" inkscape:groupmode="layer" inkscape:label="4Pipe" sodipodi:insensitive="true">
    <svg:path style="fill:#26c42e;fill-opacity:1;stroke:#000000;stroke-width:0.89999998;stroke-linejoin:round;stroke-miterlimit:4;stroke-dasharray:none;stroke-dashoffset:0;stroke-opacity:1" d="m 971.74609,856.02148 c -64.428,0 -116.29492,54.41223 -116.29492,122 l 0,55.84572 -0.0332,0 0,269.166 449.16403,0 0,-269.166 -0.033,0 0,-55.84572 c 0,-67.58777 -51.867,-122 -116.2949,-122 l -216.50781,0 z" id="rect5234" transform="translate(99.5,-1555.7093)" inkscape:connector-curvature="0"/>
    <svg:path inkscape:connector-curvature="0" id="path5059" d="m 1093.0808,-494.22017 a 44.588664,44.588594 0 0 1 -44.5886,44.5886 44.588664,44.588594 0 0 1 -44.5886,-44.5886 44.588664,44.588594 0 0 1 44.5886,-44.58859 44.588664,44.588594 0 0 1 44.5886,44.58859 z" style="fill:#ffffff;fill-opacity:0;stroke:#000000;stroke-width:0.82280952;stroke-miterlimit:4;stroke-dasharray:none;stroke-opacity:1"/>
    <svg:path inkscape:connector-curvature="0" id="path5065" d="m 1093.0808,-390.75517 a 44.588664,44.588594 0 0 1 -44.5886,44.5886 44.588664,44.588594 0 0 1 -44.5886,-44.5886 44.588664,44.588594 0 0 1 44.5886,-44.58859 44.588664,44.588594 0 0 1 44.5886,44.58859 z" style="fill:none;fill-opacity:1;stroke:#000000;stroke-width:0.82280952;stroke-miterlimit:4;stroke-dasharray:none;stroke-opacity:1"/>
  </svg:g>
  </svg>