  0
SECTION
  2
HEADER
  9
$ACADVER
  1
AC1009
  9
$EXTMIN
 10
0.0
 20
0.0
 30
0.0
  9
$EXTMAX
 10
1000.0
 20
1000.0
 30
0.0
  9
$FILLMODE
 70
 0
  9
$SPLFRAME
 70
 1
  0
ENDSEC
  0
SECTION
  2
TABLES
  0
TABLE
  2
LAYER
 70
1
  0
LAYER
  2
0
 70
     0
 62
     7
  6
CONTINUOUS
  0
ENDTAB
  0
ENDSEC
  0
SECTION
  2
ENTITIES
  0
LINE
  8
0
 62
     0
 10
31.185
 20
133.21
 30
0.0
 11
24.9122
 21
132.581
 31
0.0
  0
LINE
  8
0
 62
     0
 10
24.9122
 20
132.581
 30
0.0
 11
19.0789
 21
130.777
 31
0.0
  0
LINE
  8
0
 62
     0
 10
19.0789
 20
130.777
 30
0.0
 11
13.8038
 21
127.922
 31
0.0
  0
LINE
  8
0
 62
     0
 10
13.8038
 20
127.922
 30
0.0
 11
9.21357
 21
124.137
 31
0.0
  0
LINE
  8
0
 62
     0
 10
9.21357
 20
124.137
 30
0.0
 11
5.42809
 21
119.546
 31
0.0
  0
LINE
  8
0
 62
     0
 10
5.42809
 20
119.546
 30
0.0
 11
2.5728
 21
114.271
 31
0.0
  0
LINE
  8
0
 62
     0
 10
2.5728
 20
114.271
 30
0.0
 11
0.768946
 21
108.438
 31
0.0
  0
LINE
  8
0
 62
     0
 10
0.768946
 20
108.438
 30
0.0
 11
0.14056
 21
102.165
 31
0.0
  0
LINE
  8
0
 62
     0
 10
0.14056
 20
102.165
 30
0.0
 11
0.14056
 21
0.14056
 31
0.0
  0
LINE
  8
0
 62
     0
 10
0.14056
 20
0.14056
 30
0.0
 11
126.86
 21
0.14056
 31
0.0
  0
LINE
  8
0
 62
     0
 10
126.86
 20
0.14056
 30
0.0
 11
126.86
 21
102.165
 31
0.0
  0
LINE
  8
0
 62
     0
 10
126.86
 20
102.165
 30
0.0
 11
126.23
 21
108.438
 31
0.0
  0
LINE
  8
0
 62
     0
 10
126.23
 20
108.438
 30
0.0
 11
124.427
 21
114.271
 31
0.0
  0
LINE
  8
0
 62
     0
 10
124.427
 20
114.271
 30
0.0
 11
121.57
 21
119.546
 31
0.0
  0
LINE
  8
0
 62
     0
 10
121.57
 20
119.546
 30
0.0
 11
117.787
 21
124.137
 31
0.0
  0
LINE
  8
0
 62
     0
 10
117.787
 20
124.137
 30
0.0
 11
113.195
 21
127.922
 31
0.0
  0
LINE
  8
0
 62
     0
 10
113.195
 20
127.922
 30
0.0
 11
107.921
 21
130.777
 31
0.0
  0
LINE
  8
0
 62
     0
 10
107.921
 20
130.777
 30
0.0
 11
102.086
 21
132.581
 31
0.0
  0
LINE
  8
0
 62
     0
 10
102.086
 20
132.581
 30
0.0
 11
95.8151
 21
133.21
 31
0.0
  0
LINE
  8
0
 62
     0
 10
95.8151
 20
133.21
 30
0.0
 11
31.185
 21
133.21
 31
0.0
  0
LINE
  8
0
 62
     0
 10
38.8743
 20
75.1431
 30
0.0
 11
38.6182
 21
72.613
 31
0.0
  0
LINE
  8
0
 62
     0
 10
38.6182
 20
72.613
 30
0.0
 11
37.8866
 21
70.255
 31
0.0
  0
LINE
  8
0
 62
     0
 10
37.8866
 20
70.255
 30
0.0
 11
36.7288
 21
68.1221
 31
0.0
  0
LINE
  8
0
 62
     0
 10
36.7288
 20
68.1221
 30
0.0
 11
35.1951
 21
66.2644
 31
0.0
  0
LINE
  8
0
 62
     0
 10
35.1951
 20
66.2644
 30
0.0
 11
33.3375
 21
64.7305
 31
0.0
  0
LINE
  8
0
 62
     0
 10
33.3375
 20
64.7305
 30
0.0
 11
31.2043
 21
63.573
 31
0.0
  0
LINE
  8
0
 62
     0
 10
31.2043
 20
63.573
 30
0.0
 11
28.8465
 21
62.8414
 31
0.0
  0
LINE
  8
0
 62
     0
 10
28.8465
 20
62.8414
 30
0.0
 11
26.3164
 21
62.5849
 31
0.0
  0
LINE
  8
0
 62
     0
 10
26.3164
 20
62.5849
 30
0.0
 11
23.7849
 21
62.8414
 31
0.0
  0
LINE
  8
0
 62
     0
 10
23.7849
 20
62.8414
 30
0.0
 11
21.4271
 21
63.573
 31
0.0
  0
LINE
  8
0
 62
     0
 10
21.4271
 20
63.573
 30
0.0
 11
19.2939
 21
64.7305
 31
0.0
  0
LINE
  8
0
 62
     0
 10
19.2939
 20
64.7305
 30
0.0
 11
17.4349
 21
66.2644
 31
0.0
  0
LINE
  8
0
 62
     0
 10
17.4349
 20
66.2644
 30
0.0
 11
15.9012
 21
68.1221
 31
0.0
  0
LINE
  8
0
 62
     0
 10
15.9012
 20
68.1221
 30
0.0
 11
14.7436
 21
70.255
 31
0.0
  0
LINE
  8
0
 62
     0
 10
14.7436
 20
70.255
 30
0.0
 11
14.0119
 21
72.613
 31
0.0
  0
LINE
  8
0
 62
     0
 10
14.0119
 20
72.613
 30
0.0
 11
13.757
 21
75.1431
 31
0.0
  0
LINE
  8
0
 62
     0
 10
13.757
 20
75.1431
 30
0.0
 11
14.0119
 21
77.6746
 31
0.0
  0
LINE
  8
0
 62
     0
 10
14.0119
 20
77.6746
 30
0.0
 11
14.7436
 21
80.0322
 31
0.0
  0
LINE
  8
0
 62
     0
 10
14.7436
 20
80.0322
 30
0.0
 11
15.9012
 21
82.1655
 31
0.0
  0
LINE
  8
0
 62
     0
 10
15.9012
 20
82.1655
 30
0.0
 11
17.4349
 21
84.0246
 31
0.0
  0
LINE
  8
0
 62
     0
 10
17.4349
 20
84.0246
 30
0.0
 11
19.2939
 21
85.5581
 31
0.0
  0
LINE
  8
0
 62
     0
 10
19.2939
 20
85.5581
 30
0.0
 11
21.4271
 21
86.716
 31
0.0
  0
LINE
  8
0
 62
     0
 10
21.4271
 20
86.716
 30
0.0
 11
23.7849
 21
87.4476
 31
0.0
  0
LINE
  8
0
 62
     0
 10
23.7849
 20
87.4476
 30
0.0
 11
26.3164
 21
87.7023
 31
0.0
  0
LINE
  8
0
 62
     0
 10
26.3164
 20
87.7023
 30
0.0
 11
28.8465
 21
87.4476
 31
0.0
  0
LINE
  8
0
 62
     0
 10
28.8465
 20
87.4476
 30
0.0
 11
31.2043
 21
86.716
 31
0.0
  0
LINE
  8
0
 62
     0
 10
31.2043
 20
86.716
 30
0.0
 11
33.3375
 21
85.5581
 31
0.0
  0
LINE
  8
0
 62
     0
 10
33.3375
 20
85.5581
 30
0.0
 11
35.1951
 21
84.0246
 31
0.0
  0
LINE
  8
0
 62
     0
 10
35.1951
 20
84.0246
 30
0.0
 11
36.7288
 21
82.1655
 31
0.0
  0
LINE
  8
0
 62
     0
 10
36.7288
 20
82.1655
 30
0.0
 11
37.8866
 21
80.0322
 31
0.0
  0
LINE
  8
0
 62
     0
 10
37.8866
 20
80.0322
 30
0.0
 11
38.6182
 21
77.6746
 31
0.0
  0
LINE
  8
0
 62
     0
 10
38.6182
 20
77.6746
 30
0.0
 11
38.8743
 21
75.1431
 31
0.0
  0
LINE
  8
0
 62
     0
 10
39.0165
 20
45.9384
 30
0.0
 11
38.76
 21
43.4082
 31
0.0
  0
LINE
  8
0
 62
     0
 10
38.76
 20
43.4082
 30
0.0
 11
38.0284
 21
41.0503
 31
0.0
  0
LINE
  8
0
 62
     0
 10
38.0284
 20
41.0503
 30
0.0
 11
36.8709
 21
38.917
 31
0.0
  0
LINE
  8
0
 62
     0
 10
36.8709
 20
38.917
 30
0.0
 11
35.337
 21
37.0582
 31
0.0
  0
LINE
  8
0
 62
     0
 10
35.337
 20
37.0582
 30
0.0
 11
33.478
 21
35.5244
 31
0.0
  0
LINE
  8
0
 62
     0
 10
33.478
 20
35.5244
 30
0.0
 11
31.3449
 21
34.3669
 31
0.0
  0
LINE
  8
0
 62
     0
 10
31.3449
 20
34.3669
 30
0.0
 11
28.987
 21
33.6352
 31
0.0
  0
LINE
  8
0
 62
     0
 10
28.987
 20
33.6352
 30
0.0
 11
26.457
 21
33.3788
 31
0.0
  0
LINE
  8
0
 62
     0
 10
26.457
 20
33.3788
 30
0.0
 11
23.9255
 21
33.6352
 31
0.0
  0
LINE
  8
0
 62
     0
 10
23.9255
 20
33.6352
 30
0.0
 11
21.5677
 21
34.3669
 31
0.0
  0
LINE
  8
0
 62
     0
 10
21.5677
 20
34.3669
 30
0.0
 11
19.4345
 21
35.5244
 31
0.0
  0
LINE
  8
0
 62
     0
 10
19.4345
 20
35.5244
 30
0.0
 11
17.5769
 21
37.0582
 31
0.0
  0
LINE
  8
0
 62
     0
 10
17.5769
 20
37.0582
 30
0.0
 11
16.0431
 21
38.917
 31
0.0
  0
LINE
  8
0
 62
     0
 10
16.0431
 20
38.917
 30
0.0
 11
14.8856
 21
41.0503
 31
0.0
  0
LINE
  8
0
 62
     0
 10
14.8856
 20
41.0503
 30
0.0
 11
14.1538
 21
43.4082
 31
0.0
  0
LINE
  8
0
 62
     0
 10
14.1538
 20
43.4082
 30
0.0
 11
13.8989
 21
45.9384
 31
0.0
  0
LINE
  8
0
 62
     0
 10
13.8989
 20
45.9384
 30
0.0
 11
14.1538
 21
48.4699
 31
0.0
  0
LINE
  8
0
 62
     0
 10
14.1538
 20
48.4699
 30
0.0
 11
14.8856
 21
50.8275
 31
0.0
  0
LINE
  8
0
 62
     0
 10
14.8856
 20
50.8275
 30
0.0
 11
16.0431
 21
52.9608
 31
0.0
  0
LINE
  8
0
 62
     0
 10
16.0431
 20
52.9608
 30
0.0
 11
17.5769
 21
54.8185
 31
0.0
  0
LINE
  8
0
 62
     0
 10
17.5769
 20
54.8185
 30
0.0
 11
19.4345
 21
56.352
 31
0.0
  0
LINE
  8
0
 62
     0
 10
19.4345
 20
56.352
 30
0.0
 11
21.5677
 21
57.5098
 31
0.0
  0
LINE
  8
0
 62
     0
 10
21.5677
 20
57.5098
 30
0.0
 11
23.9255
 21
58.2415
 31
0.0
  0
LINE
  8
0
 62
     0
 10
23.9255
 20
58.2415
 30
0.0
 11
26.457
 21
58.4962
 31
0.0
  0
LINE
  8
0
 62
     0
 10
26.457
 20
58.4962
 30
0.0
 11
28.987
 21
58.2415
 31
0.0
  0
LINE
  8
0
 62
     0
 10
28.987
 20
58.2415
 30
0.0
 11
31.3449
 21
57.5098
 31
0.0
  0
LINE
  8
0
 62
     0
 10
31.3449
 20
57.5098
 30
0.0
 11
33.478
 21
56.352
 31
0.0
  0
LINE
  8
0
 62
     0
 10
33.478
 20
56.352
 30
0.0
 11
35.337
 21
54.8185
 31
0.0
  0
LINE
  8
0
 62
     0
 10
35.337
 20
54.8185
 30
0.0
 11
36.8709
 21
52.9608
 31
0.0
  0
LINE
  8
0
 62
     0
 10
36.8709
 20
52.9608
 30
0.0
 11
38.0284
 21
50.8275
 31
0.0
  0
LINE
  8
0
 62
     0
 10
38.0284
 20
50.8275
 30
0.0
 11
38.76
 21
48.4699
 31
0.0
  0
LINE
  8
0
 62
     0
 10
38.76
 20
48.4699
 30
0.0
 11
39.0165
 21
45.9384
 31
0.0
  0
ENDSEC
  0
EOF
