  0
SECTION
  2
HEADER
  9
$ACADVER
  1
AC1009
  9
$EXTMIN
 10
0.0
 20
0.0
 30
0.0
  9
$EXTMAX
 10
1000.0
 20
1000.0
 30
0.0
  9
$FILLMODE
 70
 0
  9
$SPLFRAME
 70
 1
  0
ENDSEC
  0
SECTION
  2
TABLES
  0
TABLE
  2
LAYER
 70
1
  0
LAYER
  2
0
 70
     0
 62
     7
  6
CONTINUOUS
  0
ENDTAB
  0
ENDSEC
  0
SECTION
  2
ENTITIES
  0
LINE
  8
0
 62
     102
 10
32.9572
 20
126.284
 30
0.0
 11
26.326
 21
125.587
 31
0.0
  0
LINE
  8
0
 62
     102
 10
26.326
 20
125.587
 30
0.0
 11
20.1566
 21
123.587
 31
0.0
  0
LINE
  8
0
 62
     102
 10
20.1566
 20
123.587
 30
0.0
 11
14.581
 21
120.42
 31
0.0
  0
LINE
  8
0
 62
     102
 10
14.581
 20
120.42
 30
0.0
 11
9.72756
 21
116.221
 31
0.0
  0
LINE
  8
0
 62
     102
 10
9.72756
 20
116.221
 30
0.0
 11
5.72576
 21
111.129
 31
0.0
  0
LINE
  8
0
 62
     102
 10
5.72576
 20
111.129
 30
0.0
 11
2.70647
 21
105.279
 31
0.0
  0
LINE
  8
0
 62
     102
 10
2.70647
 20
105.279
 30
0.0
 11
0.80064
 21
98.8081
 31
0.0
  0
LINE
  8
0
 62
     102
 10
0.80064
 20
98.8081
 30
0.0
 11
0.136426
 21
91.8517
 31
0.0
  0
LINE
  8
0
 62
     102
 10
0.136426
 20
91.8517
 30
0.0
 11
0.136426
 21
76.091
 31
0.0
  0
LINE
  8
0
 62
     102
 10
0.136426
 20
76.091
 30
0.0
 11
0.12678
 21
76.091
 31
0.0
  0
LINE
  8
0
 62
     102
 10
0.12678
 20
76.091
 30
0.0
 11
0.12678
 21
0.12678
 31
0.0
  0
LINE
  8
0
 62
     102
 10
0.12678
 20
0.12678
 30
0.0
 11
126.891
 21
0.12678
 31
0.0
  0
LINE
  8
0
 62
     102
 10
126.891
 20
0.12678
 30
0.0
 11
126.891
 21
76.091
 31
0.0
  0
LINE
  8
0
 62
     102
 10
126.891
 20
76.091
 30
0.0
 11
126.881
 21
76.091
 31
0.0
  0
LINE
  8
0
 62
     102
 10
126.881
 20
76.091
 30
0.0
 11
126.881
 21
91.8517
 31
0.0
  0
LINE
  8
0
 62
     102
 10
126.881
 20
91.8517
 30
0.0
 11
126.216
 21
98.8081
 31
0.0
  0
LINE
  8
0
 62
     102
 10
126.216
 20
98.8081
 30
0.0
 11
124.31
 21
105.279
 31
0.0
  0
LINE
  8
0
 62
     102
 10
124.31
 20
105.279
 30
0.0
 11
121.291
 21
111.129
 31
0.0
  0
LINE
  8
0
 62
     102
 10
121.291
 20
111.129
 30
0.0
 11
117.289
 21
116.221
 31
0.0
  0
LINE
  8
0
 62
     102
 10
117.289
 20
116.221
 30
0.0
 11
112.436
 21
120.42
 31
0.0
  0
LINE
  8
0
 62
     102
 10
112.436
 20
120.42
 30
0.0
 11
106.86
 21
123.587
 31
0.0
  0
LINE
  8
0
 62
     102
 10
106.86
 20
123.587
 30
0.0
 11
100.691
 21
125.587
 31
0.0
  0
LINE
  8
0
 62
     102
 10
100.691
 20
125.587
 30
0.0
 11
94.0608
 21
126.284
 31
0.0
  0
LINE
  8
0
 62
     102
 10
94.0608
 20
126.284
 30
0.0
 11
32.9572
 21
126.284
 31
0.0
  0
LINE
  8
0
 62
     0
 10
32.9572
 20
126.284
 30
0.0
 11
26.326
 21
125.587
 31
0.0
  0
LINE
  8
0
 62
     0
 10
26.326
 20
125.587
 30
0.0
 11
20.1566
 21
123.587
 31
0.0
  0
LINE
  8
0
 62
     0
 10
20.1566
 20
123.587
 30
0.0
 11
14.581
 21
120.42
 31
0.0
  0
LINE
  8
0
 62
     0
 10
14.581
 20
120.42
 30
0.0
 11
9.72756
 21
116.221
 31
0.0
  0
LINE
  8
0
 62
     0
 10
9.72756
 20
116.221
 30
0.0
 11
5.72576
 21
111.129
 31
0.0
  0
LINE
  8
0
 62
     0
 10
5.72576
 20
111.129
 30
0.0
 11
2.70647
 21
105.279
 31
0.0
  0
LINE
  8
0
 62
     0
 10
2.70647
 20
105.279
 30
0.0
 11
0.80064
 21
98.8081
 31
0.0
  0
LINE
  8
0
 62
     0
 10
0.80064
 20
98.8081
 30
0.0
 11
0.136426
 21
91.8517
 31
0.0
  0
LINE
  8
0
 62
     0
 10
0.136426
 20
91.8517
 30
0.0
 11
0.136426
 21
76.091
 31
0.0
  0
LINE
  8
0
 62
     0
 10
0.136426
 20
76.091
 30
0.0
 11
0.12678
 21
76.091
 31
0.0
  0
LINE
  8
0
 62
     0
 10
0.12678
 20
76.091
 30
0.0
 11
0.12678
 21
0.12678
 31
0.0
  0
LINE
  8
0
 62
     0
 10
0.12678
 20
0.12678
 30
0.0
 11
126.891
 21
0.12678
 31
0.0
  0
LINE
  8
0
 62
     0
 10
126.891
 20
0.12678
 30
0.0
 11
126.891
 21
76.091
 31
0.0
  0
LINE
  8
0
 62
     0
 10
126.891
 20
76.091
 30
0.0
 11
126.881
 21
76.091
 31
0.0
  0
LINE
  8
0
 62
     0
 10
126.881
 20
76.091
 30
0.0
 11
126.881
 21
91.8517
 31
0.0
  0
LINE
  8
0
 62
     0
 10
126.881
 20
91.8517
 30
0.0
 11
126.216
 21
98.8081
 31
0.0
  0
LINE
  8
0
 62
     0
 10
126.216
 20
98.8081
 30
0.0
 11
124.31
 21
105.279
 31
0.0
  0
LINE
  8
0
 62
     0
 10
124.31
 20
105.279
 30
0.0
 11
121.291
 21
111.129
 31
0.0
  0
LINE
  8
0
 62
     0
 10
121.291
 20
111.129
 30
0.0
 11
117.289
 21
116.221
 31
0.0
  0
LINE
  8
0
 62
     0
 10
117.289
 20
116.221
 30
0.0
 11
112.436
 21
120.42
 31
0.0
  0
LINE
  8
0
 62
     0
 10
112.436
 20
120.42
 30
0.0
 11
106.86
 21
123.587
 31
0.0
  0
LINE
  8
0
 62
     0
 10
106.86
 20
123.587
 30
0.0
 11
100.691
 21
125.587
 31
0.0
  0
LINE
  8
0
 62
     0
 10
100.691
 20
125.587
 30
0.0
 11
94.0608
 21
126.284
 31
0.0
  0
LINE
  8
0
 62
     0
 10
94.0608
 20
126.284
 30
0.0
 11
32.9572
 21
126.284
 31
0.0
  0
LINE
  8
0
 62
     0
 10
39.1199
 20
68.2957
 30
0.0
 11
38.8634
 21
65.7599
 31
0.0
  0
LINE
  8
0
 62
     0
 10
38.8634
 20
65.7599
 30
0.0
 11
38.1303
 21
63.398
 31
0.0
  0
LINE
  8
0
 62
     0
 10
38.1303
 20
63.398
 30
0.0
 11
36.9701
 21
61.2606
 31
0.0
  0
LINE
  8
0
 62
     0
 10
36.9701
 20
61.2606
 30
0.0
 11
35.4334
 21
59.3975
 31
0.0
  0
LINE
  8
0
 62
     0
 10
35.4334
 20
59.3975
 30
0.0
 11
33.5704
 21
57.8612
 31
0.0
  0
LINE
  8
0
 62
     0
 10
33.5704
 20
57.8612
 30
0.0
 11
31.4331
 21
56.7009
 31
0.0
  0
LINE
  8
0
 62
     0
 10
31.4331
 20
56.7009
 30
0.0
 11
29.0711
 21
55.9675
 31
0.0
  0
LINE
  8
0
 62
     0
 10
29.0711
 20
55.9675
 30
0.0
 11
26.5355
 21
55.7114
 31
0.0
  0
LINE
  8
0
 62
     0
 10
26.5355
 20
55.7114
 30
0.0
 11
23.9985
 21
55.9675
 31
0.0
  0
LINE
  8
0
 62
     0
 10
23.9985
 20
55.9675
 30
0.0
 11
21.6366
 21
56.7009
 31
0.0
  0
LINE
  8
0
 62
     0
 10
21.6366
 20
56.7009
 30
0.0
 11
19.4992
 21
57.8612
 31
0.0
  0
LINE
  8
0
 62
     0
 10
19.4992
 20
57.8612
 30
0.0
 11
17.6361
 21
59.3975
 31
0.0
  0
LINE
  8
0
 62
     0
 10
17.6361
 20
59.3975
 30
0.0
 11
16.0996
 21
61.2606
 31
0.0
  0
LINE
  8
0
 62
     0
 10
16.0996
 20
61.2606
 30
0.0
 11
14.9393
 21
63.398
 31
0.0
  0
LINE
  8
0
 62
     0
 10
14.9393
 20
63.398
 30
0.0
 11
14.2062
 21
65.7599
 31
0.0
  0
LINE
  8
0
 62
     0
 10
14.2062
 20
65.7599
 30
0.0
 11
13.9513
 21
68.2957
 31
0.0
  0
LINE
  8
0
 62
     0
 10
13.9513
 20
68.2957
 30
0.0
 11
14.2062
 21
70.8325
 31
0.0
  0
LINE
  8
0
 62
     0
 10
14.2062
 20
70.8325
 30
0.0
 11
14.9393
 21
73.1943
 31
0.0
  0
LINE
  8
0
 62
     0
 10
14.9393
 20
73.1943
 30
0.0
 11
16.0996
 21
75.3318
 31
0.0
  0
LINE
  8
0
 62
     0
 10
16.0996
 20
75.3318
 30
0.0
 11
17.6361
 21
77.1948
 31
0.0
  0
LINE
  8
0
 62
     0
 10
17.6361
 20
77.1948
 30
0.0
 11
19.4992
 21
78.7315
 31
0.0
  0
LINE
  8
0
 62
     0
 10
19.4992
 20
78.7315
 30
0.0
 11
21.6366
 21
79.8918
 31
0.0
  0
LINE
  8
0
 62
     0
 10
21.6366
 20
79.8918
 30
0.0
 11
23.9985
 21
80.6249
 31
0.0
  0
LINE
  8
0
 62
     0
 10
23.9985
 20
80.6249
 30
0.0
 11
26.5355
 21
80.88
 31
0.0
  0
LINE
  8
0
 62
     0
 10
26.5355
 20
80.88
 30
0.0
 11
29.0711
 21
80.6249
 31
0.0
  0
LINE
  8
0
 62
     0
 10
29.0711
 20
80.6249
 30
0.0
 11
31.4331
 21
79.8918
 31
0.0
  0
LINE
  8
0
 62
     0
 10
31.4331
 20
79.8918
 30
0.0
 11
33.5704
 21
78.7315
 31
0.0
  0
LINE
  8
0
 62
     0
 10
33.5704
 20
78.7315
 30
0.0
 11
35.4334
 21
77.1948
 31
0.0
  0
LINE
  8
0
 62
     0
 10
35.4334
 20
77.1948
 30
0.0
 11
36.9701
 21
75.3318
 31
0.0
  0
LINE
  8
0
 62
     0
 10
36.9701
 20
75.3318
 30
0.0
 11
38.1303
 21
73.1943
 31
0.0
  0
LINE
  8
0
 62
     0
 10
38.1303
 20
73.1943
 30
0.0
 11
38.8634
 21
70.8325
 31
0.0
  0
LINE
  8
0
 62
     0
 10
38.8634
 20
70.8325
 30
0.0
 11
39.1199
 21
68.2957
 31
0.0
  0
LINE
  8
0
 62
     0
 10
39.1199
 20
39.0948
 30
0.0
 11
38.8634
 21
36.5594
 31
0.0
  0
LINE
  8
0
 62
     0
 10
38.8634
 20
36.5594
 30
0.0
 11
38.1303
 21
34.1974
 31
0.0
  0
LINE
  8
0
 62
     0
 10
38.1303
 20
34.1974
 30
0.0
 11
36.9701
 21
32.0601
 31
0.0
  0
LINE
  8
0
 62
     0
 10
36.9701
 20
32.0601
 30
0.0
 11
35.4334
 21
30.1983
 31
0.0
  0
LINE
  8
0
 62
     0
 10
35.4334
 20
30.1983
 30
0.0
 11
33.5704
 21
28.6618
 31
0.0
  0
LINE
  8
0
 62
     0
 10
33.5704
 20
28.6618
 30
0.0
 11
31.4331
 21
27.5015
 31
0.0
  0
LINE
  8
0
 62
     0
 10
31.4331
 20
27.5015
 30
0.0
 11
29.0711
 21
26.7684
 31
0.0
  0
LINE
  8
0
 62
     0
 10
29.0711
 20
26.7684
 30
0.0
 11
26.5355
 21
26.5121
 31
0.0
  0
LINE
  8
0
 62
     0
 10
26.5355
 20
26.5121
 30
0.0
 11
23.9985
 21
26.7684
 31
0.0
  0
LINE
  8
0
 62
     0
 10
23.9985
 20
26.7684
 30
0.0
 11
21.6366
 21
27.5015
 31
0.0
  0
LINE
  8
0
 62
     0
 10
21.6366
 20
27.5015
 30
0.0
 11
19.4992
 21
28.6618
 31
0.0
  0
LINE
  8
0
 62
     0
 10
19.4992
 20
28.6618
 30
0.0
 11
17.6361
 21
30.1983
 31
0.0
  0
LINE
  8
0
 62
     0
 10
17.6361
 20
30.1983
 30
0.0
 11
16.0996
 21
32.0601
 31
0.0
  0
LINE
  8
0
 62
     0
 10
16.0996
 20
32.0601
 30
0.0
 11
14.9393
 21
34.1974
 31
0.0
  0
LINE
  8
0
 62
     0
 10
14.9393
 20
34.1974
 30
0.0
 11
14.2062
 21
36.5594
 31
0.0
  0
LINE
  8
0
 62
     0
 10
14.2062
 20
36.5594
 30
0.0
 11
13.9513
 21
39.0948
 31
0.0
  0
LINE
  8
0
 62
     0
 10
13.9513
 20
39.0948
 30
0.0
 11
14.2062
 21
41.632
 31
0.0
  0
LINE
  8
0
 62
     0
 10
14.2062
 20
41.632
 30
0.0
 11
14.9393
 21
43.9939
 31
0.0
  0
LINE
  8
0
 62
     0
 10
14.9393
 20
43.9939
 30
0.0
 11
16.0996
 21
46.1328
 31
0.0
  0
LINE
  8
0
 62
     0
 10
16.0996
 20
46.1328
 30
0.0
 11
17.6361
 21
47.9944
 31
0.0
  0
LINE
  8
0
 62
     0
 10
17.6361
 20
47.9944
 30
0.0
 11
19.4992
 21
49.5307
 31
0.0
  0
LINE
  8
0
 62
     0
 10
19.4992
 20
49.5307
 30
0.0
 11
21.6366
 21
50.691
 31
0.0
  0
LINE
  8
0
 62
     0
 10
21.6366
 20
50.691
 30
0.0
 11
23.9985
 21
51.4244
 31
0.0
  0
LINE
  8
0
 62
     0
 10
23.9985
 20
51.4244
 30
0.0
 11
26.5355
 21
51.6791
 31
0.0
  0
LINE
  8
0
 62
     0
 10
26.5355
 20
51.6791
 30
0.0
 11
29.0711
 21
51.4244
 31
0.0
  0
LINE
  8
0
 62
     0
 10
29.0711
 20
51.4244
 30
0.0
 11
31.4331
 21
50.691
 31
0.0
  0
LINE
  8
0
 62
     0
 10
31.4331
 20
50.691
 30
0.0
 11
33.5704
 21
49.5307
 31
0.0
  0
LINE
  8
0
 62
     0
 10
33.5704
 20
49.5307
 30
0.0
 11
35.4334
 21
47.9944
 31
0.0
  0
LINE
  8
0
 62
     0
 10
35.4334
 20
47.9944
 30
0.0
 11
36.9701
 21
46.1328
 31
0.0
  0
LINE
  8
0
 62
     0
 10
36.9701
 20
46.1328
 30
0.0
 11
38.1303
 21
43.9939
 31
0.0
  0
LINE
  8
0
 62
     0
 10
38.1303
 20
43.9939
 30
0.0
 11
38.8634
 21
41.632
 31
0.0
  0
LINE
  8
0
 62
     0
 10
38.8634
 20
41.632
 30
0.0
 11
39.1199
 21
39.0948
 31
0.0
  0
ENDSEC
  0
EOF
