  0
SECTION
  2
HEADER
  9
$ACADVER
  1
AC1009
  9
$EXTMIN
 10
0.0
 20
0.0
 30
0.0
  9
$EXTMAX
 10
1000.0
 20
1000.0
 30
0.0
  9
$FILLMODE
 70
 0
  9
$SPLFRAME
 70
 1
  0
ENDSEC
  0
SECTION
  2
TABLES
  0
TABLE
  2
LAYER
 70
1
  0
LAYER
  2
0
 70
     0
 62
     7
  6
CONTINUOUS
  0
ENDTAB
  0
ENDSEC
  0
SECTION
  2
ENTITIES
  0
LINE
  8
0
 62
     0
 10
0.14056
 20
139.56
 30
0.0
 11
139.56
 21
139.56
 31
0.0
  0
LINE
  8
0
 62
     0
 10
139.56
 20
139.56
 30
0.0
 11
139.56
 21
0.14056
 31
0.0
  0
LINE
  8
0
 62
     0
 10
139.56
 20
0.14056
 30
0.0
 11
0.14056
 21
0.14056
 31
0.0
  0
LINE
  8
0
 62
     0
 10
0.14056
 20
0.14056
 30
0.0
 11
0.14056
 21
139.56
 31
0.0
  0
LINE
  8
0
 62
     0
 10
45.2243
 20
75.1431
 30
0.0
 11
44.9682
 21
72.613
 31
0.0
  0
LINE
  8
0
 62
     0
 10
44.9682
 20
72.613
 30
0.0
 11
44.2366
 21
70.255
 31
0.0
  0
LINE
  8
0
 62
     0
 10
44.2366
 20
70.255
 30
0.0
 11
43.0788
 21
68.1221
 31
0.0
  0
LINE
  8
0
 62
     0
 10
43.0788
 20
68.1221
 30
0.0
 11
41.5452
 21
66.2644
 31
0.0
  0
LINE
  8
0
 62
     0
 10
41.5452
 20
66.2644
 30
0.0
 11
39.6875
 21
64.7305
 31
0.0
  0
LINE
  8
0
 62
     0
 10
39.6875
 20
64.7305
 30
0.0
 11
37.5543
 21
63.573
 31
0.0
  0
LINE
  8
0
 62
     0
 10
37.5543
 20
63.573
 30
0.0
 11
35.1965
 21
62.8414
 31
0.0
  0
LINE
  8
0
 62
     0
 10
35.1965
 20
62.8414
 30
0.0
 11
32.6664
 21
62.5849
 31
0.0
  0
LINE
  8
0
 62
     0
 10
32.6664
 20
62.5849
 30
0.0
 11
30.1349
 21
62.8414
 31
0.0
  0
LINE
  8
0
 62
     0
 10
30.1349
 20
62.8414
 30
0.0
 11
27.7771
 21
63.573
 31
0.0
  0
LINE
  8
0
 62
     0
 10
27.7771
 20
63.573
 30
0.0
 11
25.6439
 21
64.7305
 31
0.0
  0
LINE
  8
0
 62
     0
 10
25.6439
 20
64.7305
 30
0.0
 11
23.7849
 21
66.2644
 31
0.0
  0
LINE
  8
0
 62
     0
 10
23.7849
 20
66.2644
 30
0.0
 11
22.2512
 21
68.1221
 31
0.0
  0
LINE
  8
0
 62
     0
 10
22.2512
 20
68.1221
 30
0.0
 11
21.0936
 21
70.255
 31
0.0
  0
LINE
  8
0
 62
     0
 10
21.0936
 20
70.255
 30
0.0
 11
20.3619
 21
72.613
 31
0.0
  0
LINE
  8
0
 62
     0
 10
20.3619
 20
72.613
 30
0.0
 11
20.107
 21
75.1431
 31
0.0
  0
LINE
  8
0
 62
     0
 10
20.107
 20
75.1431
 30
0.0
 11
20.3619
 21
77.6746
 31
0.0
  0
LINE
  8
0
 62
     0
 10
20.3619
 20
77.6746
 30
0.0
 11
21.0936
 21
80.0322
 31
0.0
  0
LINE
  8
0
 62
     0
 10
21.0936
 20
80.0322
 30
0.0
 11
22.2512
 21
82.1655
 31
0.0
  0
LINE
  8
0
 62
     0
 10
22.2512
 20
82.1655
 30
0.0
 11
23.7849
 21
84.0246
 31
0.0
  0
LINE
  8
0
 62
     0
 10
23.7849
 20
84.0246
 30
0.0
 11
25.6439
 21
85.5581
 31
0.0
  0
LINE
  8
0
 62
     0
 10
25.6439
 20
85.5581
 30
0.0
 11
27.7771
 21
86.716
 31
0.0
  0
LINE
  8
0
 62
     0
 10
27.7771
 20
86.716
 30
0.0
 11
30.1349
 21
87.4476
 31
0.0
  0
LINE
  8
0
 62
     0
 10
30.1349
 20
87.4476
 30
0.0
 11
32.6664
 21
87.7023
 31
0.0
  0
LINE
  8
0
 62
     0
 10
32.6664
 20
87.7023
 30
0.0
 11
35.1965
 21
87.4476
 31
0.0
  0
LINE
  8
0
 62
     0
 10
35.1965
 20
87.4476
 30
0.0
 11
37.5543
 21
86.716
 31
0.0
  0
LINE
  8
0
 62
     0
 10
37.5543
 20
86.716
 30
0.0
 11
39.6875
 21
85.5581
 31
0.0
  0
LINE
  8
0
 62
     0
 10
39.6875
 20
85.5581
 30
0.0
 11
41.5452
 21
84.0246
 31
0.0
  0
LINE
  8
0
 62
     0
 10
41.5452
 20
84.0246
 30
0.0
 11
43.0788
 21
82.1655
 31
0.0
  0
LINE
  8
0
 62
     0
 10
43.0788
 20
82.1655
 30
0.0
 11
44.2366
 21
80.0322
 31
0.0
  0
LINE
  8
0
 62
     0
 10
44.2366
 20
80.0322
 30
0.0
 11
44.9682
 21
77.6746
 31
0.0
  0
LINE
  8
0
 62
     0
 10
44.9682
 20
77.6746
 30
0.0
 11
45.2243
 21
75.1431
 31
0.0
  0
LINE
  8
0
 62
     0
 10
45.3665
 20
45.9384
 30
0.0
 11
45.11
 21
43.4082
 31
0.0
  0
LINE
  8
0
 62
     0
 10
45.11
 20
43.4082
 30
0.0
 11
44.3784
 21
41.0503
 31
0.0
  0
LINE
  8
0
 62
     0
 10
44.3784
 20
41.0503
 30
0.0
 11
43.2209
 21
38.917
 31
0.0
  0
LINE
  8
0
 62
     0
 10
43.2209
 20
38.917
 30
0.0
 11
41.687
 21
37.0582
 31
0.0
  0
LINE
  8
0
 62
     0
 10
41.687
 20
37.0582
 30
0.0
 11
39.8279
 21
35.5244
 31
0.0
  0
LINE
  8
0
 62
     0
 10
39.8279
 20
35.5244
 30
0.0
 11
37.695
 21
34.3669
 31
0.0
  0
LINE
  8
0
 62
     0
 10
37.695
 20
34.3669
 30
0.0
 11
35.337
 21
33.6352
 31
0.0
  0
LINE
  8
0
 62
     0
 10
35.337
 20
33.6352
 30
0.0
 11
32.807
 21
33.3788
 31
0.0
  0
LINE
  8
0
 62
     0
 10
32.807
 20
33.3788
 30
0.0
 11
30.2755
 21
33.6352
 31
0.0
  0
LINE
  8
0
 62
     0
 10
30.2755
 20
33.6352
 30
0.0
 11
27.9177
 21
34.3669
 31
0.0
  0
LINE
  8
0
 62
     0
 10
27.9177
 20
34.3669
 30
0.0
 11
25.7845
 21
35.5244
 31
0.0
  0
LINE
  8
0
 62
     0
 10
25.7845
 20
35.5244
 30
0.0
 11
23.9269
 21
37.0582
 31
0.0
  0
LINE
  8
0
 62
     0
 10
23.9269
 20
37.0582
 30
0.0
 11
22.3931
 21
38.917
 31
0.0
  0
LINE
  8
0
 62
     0
 10
22.3931
 20
38.917
 30
0.0
 11
21.2356
 21
41.0503
 31
0.0
  0
LINE
  8
0
 62
     0
 10
21.2356
 20
41.0503
 30
0.0
 11
20.5038
 21
43.4082
 31
0.0
  0
LINE
  8
0
 62
     0
 10
20.5038
 20
43.4082
 30
0.0
 11
20.2489
 21
45.9384
 31
0.0
  0
LINE
  8
0
 62
     0
 10
20.2489
 20
45.9384
 30
0.0
 11
20.5038
 21
48.4699
 31
0.0
  0
LINE
  8
0
 62
     0
 10
20.5038
 20
48.4699
 30
0.0
 11
21.2356
 21
50.8275
 31
0.0
  0
LINE
  8
0
 62
     0
 10
21.2356
 20
50.8275
 30
0.0
 11
22.3931
 21
52.9608
 31
0.0
  0
LINE
  8
0
 62
     0
 10
22.3931
 20
52.9608
 30
0.0
 11
23.9269
 21
54.8199
 31
0.0
  0
LINE
  8
0
 62
     0
 10
23.9269
 20
54.8199
 30
0.0
 11
25.7845
 21
56.3534
 31
0.0
  0
LINE
  8
0
 62
     0
 10
25.7845
 20
56.3534
 30
0.0
 11
27.9177
 21
57.5109
 31
0.0
  0
LINE
  8
0
 62
     0
 10
27.9177
 20
57.5109
 30
0.0
 11
30.2755
 21
58.2429
 31
0.0
  0
LINE
  8
0
 62
     0
 10
30.2755
 20
58.2429
 30
0.0
 11
32.807
 21
58.4976
 31
0.0
  0
LINE
  8
0
 62
     0
 10
32.807
 20
58.4976
 30
0.0
 11
35.337
 21
58.2429
 31
0.0
  0
LINE
  8
0
 62
     0
 10
35.337
 20
58.2429
 30
0.0
 11
37.695
 21
57.5109
 31
0.0
  0
LINE
  8
0
 62
     0
 10
37.695
 20
57.5109
 30
0.0
 11
39.8279
 21
56.3534
 31
0.0
  0
LINE
  8
0
 62
     0
 10
39.8279
 20
56.3534
 30
0.0
 11
41.687
 21
54.8199
 31
0.0
  0
LINE
  8
0
 62
     0
 10
41.687
 20
54.8199
 30
0.0
 11
43.2209
 21
52.9608
 31
0.0
  0
LINE
  8
0
 62
     0
 10
43.2209
 20
52.9608
 30
0.0
 11
44.3784
 21
50.8275
 31
0.0
  0
LINE
  8
0
 62
     0
 10
44.3784
 20
50.8275
 30
0.0
 11
45.11
 21
48.4699
 31
0.0
  0
LINE
  8
0
 62
     0
 10
45.11
 20
48.4699
 30
0.0
 11
45.3665
 21
45.9384
 31
0.0
  0
ENDSEC
  0
EOF
