  0
SECTION
  2
HEADER
  9
$ACADVER
  1
AC1009
  9
$EXTMIN
 10
0.0
 20
0.0
 30
0.0
  9
$EXTMAX
 10
1000.0
 20
1000.0
 30
0.0
  9
$FILLMODE
 70
 0
  9
$SPLFRAME
 70
 1
  0
ENDSEC
  0
SECTION
  2
TABLES
  0
TABLE
  2
LAYER
 70
1
  0
LAYER
  2
0
 70
     0
 62
     7
  6
CONTINUOUS
  0
ENDTAB
  0
ENDSEC
  0
SECTION
  2
ENTITIES
  0
LINE
  8
0
 62
     0
 10
45.6022
 20
75.0743
 30
0.0
 11
45.3457
 21
72.5385
 31
0.0
  0
LINE
  8
0
 62
     0
 10
45.3457
 20
72.5385
 30
0.0
 11
44.6126
 21
70.1767
 31
0.0
  0
LINE
  8
0
 62
     0
 10
44.6126
 20
70.1767
 30
0.0
 11
43.4523
 21
68.0392
 31
0.0
  0
LINE
  8
0
 62
     0
 10
43.4523
 20
68.0392
 30
0.0
 11
41.9156
 21
66.1762
 31
0.0
  0
LINE
  8
0
 62
     0
 10
41.9156
 20
66.1762
 30
0.0
 11
40.0526
 21
64.6395
 31
0.0
  0
LINE
  8
0
 62
     0
 10
40.0526
 20
64.6395
 30
0.0
 11
37.9155
 21
63.4792
 31
0.0
  0
LINE
  8
0
 62
     0
 10
37.9155
 20
63.4792
 30
0.0
 11
35.5533
 21
62.7461
 31
0.0
  0
LINE
  8
0
 62
     0
 10
35.5533
 20
62.7461
 30
0.0
 11
33.0178
 21
62.49
 31
0.0
  0
LINE
  8
0
 62
     0
 10
33.0178
 20
62.49
 30
0.0
 11
30.4808
 21
62.7461
 31
0.0
  0
LINE
  8
0
 62
     0
 10
30.4808
 20
62.7461
 30
0.0
 11
28.1189
 21
63.4792
 31
0.0
  0
LINE
  8
0
 62
     0
 10
28.1189
 20
63.4792
 30
0.0
 11
25.9815
 21
64.6395
 31
0.0
  0
LINE
  8
0
 62
     0
 10
25.9815
 20
64.6395
 30
0.0
 11
24.1184
 21
66.1762
 31
0.0
  0
LINE
  8
0
 62
     0
 10
24.1184
 20
66.1762
 30
0.0
 11
22.5819
 21
68.0392
 31
0.0
  0
LINE
  8
0
 62
     0
 10
22.5819
 20
68.0392
 30
0.0
 11
21.4216
 21
70.1767
 31
0.0
  0
LINE
  8
0
 62
     0
 10
21.4216
 20
70.1767
 30
0.0
 11
20.6885
 21
72.5385
 31
0.0
  0
LINE
  8
0
 62
     0
 10
20.6885
 20
72.5385
 30
0.0
 11
20.4336
 21
75.0743
 31
0.0
  0
LINE
  8
0
 62
     0
 10
20.4336
 20
75.0743
 30
0.0
 11
20.6885
 21
77.6111
 31
0.0
  0
LINE
  8
0
 62
     0
 10
20.6885
 20
77.6111
 30
0.0
 11
21.4216
 21
79.973
 31
0.0
  0
LINE
  8
0
 62
     0
 10
21.4216
 20
79.973
 30
0.0
 11
22.5819
 21
82.1104
 31
0.0
  0
LINE
  8
0
 62
     0
 10
22.5819
 20
82.1104
 30
0.0
 11
24.1184
 21
83.9735
 31
0.0
  0
LINE
  8
0
 62
     0
 10
24.1184
 20
83.9735
 30
0.0
 11
25.9815
 21
85.5102
 31
0.0
  0
LINE
  8
0
 62
     0
 10
25.9815
 20
85.5102
 30
0.0
 11
28.1189
 21
86.6704
 31
0.0
  0
LINE
  8
0
 62
     0
 10
28.1189
 20
86.6704
 30
0.0
 11
30.4808
 21
87.4035
 31
0.0
  0
LINE
  8
0
 62
     0
 10
30.4808
 20
87.4035
 30
0.0
 11
33.0178
 21
87.6582
 31
0.0
  0
LINE
  8
0
 62
     0
 10
33.0178
 20
87.6582
 30
0.0
 11
35.5533
 21
87.4035
 31
0.0
  0
LINE
  8
0
 62
     0
 10
35.5533
 20
87.4035
 30
0.0
 11
37.9155
 21
86.6704
 31
0.0
  0
LINE
  8
0
 62
     0
 10
37.9155
 20
86.6704
 30
0.0
 11
40.0526
 21
85.5102
 31
0.0
  0
LINE
  8
0
 62
     0
 10
40.0526
 20
85.5102
 30
0.0
 11
41.9156
 21
83.9735
 31
0.0
  0
LINE
  8
0
 62
     0
 10
41.9156
 20
83.9735
 30
0.0
 11
43.4523
 21
82.1104
 31
0.0
  0
LINE
  8
0
 62
     0
 10
43.4523
 20
82.1104
 30
0.0
 11
44.6126
 21
79.973
 31
0.0
  0
LINE
  8
0
 62
     0
 10
44.6126
 20
79.973
 30
0.0
 11
45.3457
 21
77.6111
 31
0.0
  0
LINE
  8
0
 62
     0
 10
45.3457
 20
77.6111
 30
0.0
 11
45.6022
 21
75.0743
 31
0.0
  0
LINE
  8
0
 62
     0
 10
45.6022
 20
45.8735
 30
0.0
 11
45.3457
 21
43.338
 31
0.0
  0
LINE
  8
0
 62
     0
 10
45.3457
 20
43.338
 30
0.0
 11
44.6126
 21
40.9758
 31
0.0
  0
LINE
  8
0
 62
     0
 10
44.6126
 20
40.9758
 30
0.0
 11
43.4523
 21
38.8387
 31
0.0
  0
LINE
  8
0
 62
     0
 10
43.4523
 20
38.8387
 30
0.0
 11
41.9156
 21
36.9768
 31
0.0
  0
LINE
  8
0
 62
     0
 10
41.9156
 20
36.9768
 30
0.0
 11
40.0526
 21
35.4404
 31
0.0
  0
LINE
  8
0
 62
     0
 10
40.0526
 20
35.4404
 30
0.0
 11
37.9155
 21
34.2801
 31
0.0
  0
LINE
  8
0
 62
     0
 10
37.9155
 20
34.2801
 30
0.0
 11
35.5533
 21
33.547
 31
0.0
  0
LINE
  8
0
 62
     0
 10
35.5533
 20
33.547
 30
0.0
 11
33.0178
 21
33.2907
 31
0.0
  0
LINE
  8
0
 62
     0
 10
33.0178
 20
33.2907
 30
0.0
 11
30.4808
 21
33.547
 31
0.0
  0
LINE
  8
0
 62
     0
 10
30.4808
 20
33.547
 30
0.0
 11
28.1189
 21
34.2801
 31
0.0
  0
LINE
  8
0
 62
     0
 10
28.1189
 20
34.2801
 30
0.0
 11
25.9815
 21
35.4404
 31
0.0
  0
LINE
  8
0
 62
     0
 10
25.9815
 20
35.4404
 30
0.0
 11
24.1184
 21
36.9768
 31
0.0
  0
LINE
  8
0
 62
     0
 10
24.1184
 20
36.9768
 30
0.0
 11
22.5819
 21
38.8387
 31
0.0
  0
LINE
  8
0
 62
     0
 10
22.5819
 20
38.8387
 30
0.0
 11
21.4216
 21
40.9758
 31
0.0
  0
LINE
  8
0
 62
     0
 10
21.4216
 20
40.9758
 30
0.0
 11
20.6885
 21
43.338
 31
0.0
  0
LINE
  8
0
 62
     0
 10
20.6885
 20
43.338
 30
0.0
 11
20.4336
 21
45.8735
 31
0.0
  0
LINE
  8
0
 62
     0
 10
20.4336
 20
45.8735
 30
0.0
 11
20.6885
 21
48.4106
 31
0.0
  0
LINE
  8
0
 62
     0
 10
20.6885
 20
48.4106
 30
0.0
 11
21.4216
 21
50.7725
 31
0.0
  0
LINE
  8
0
 62
     0
 10
21.4216
 20
50.7725
 30
0.0
 11
22.5819
 21
52.911
 31
0.0
  0
LINE
  8
0
 62
     0
 10
22.5819
 20
52.911
 30
0.0
 11
24.1184
 21
54.773
 31
0.0
  0
LINE
  8
0
 62
     0
 10
24.1184
 20
54.773
 30
0.0
 11
25.9815
 21
56.3093
 31
0.0
  0
LINE
  8
0
 62
     0
 10
25.9815
 20
56.3093
 30
0.0
 11
28.1189
 21
57.4696
 31
0.0
  0
LINE
  8
0
 62
     0
 10
28.1189
 20
57.4696
 30
0.0
 11
30.4808
 21
58.2027
 31
0.0
  0
LINE
  8
0
 62
     0
 10
30.4808
 20
58.2027
 30
0.0
 11
33.0178
 21
58.4577
 31
0.0
  0
LINE
  8
0
 62
     0
 10
33.0178
 20
58.4577
 30
0.0
 11
35.5533
 21
58.2027
 31
0.0
  0
LINE
  8
0
 62
     0
 10
35.5533
 20
58.2027
 30
0.0
 11
37.9155
 21
57.4696
 31
0.0
  0
LINE
  8
0
 62
     0
 10
37.9155
 20
57.4696
 30
0.0
 11
40.0526
 21
56.3093
 31
0.0
  0
LINE
  8
0
 62
     0
 10
40.0526
 20
56.3093
 30
0.0
 11
41.9156
 21
54.773
 31
0.0
  0
LINE
  8
0
 62
     0
 10
41.9156
 20
54.773
 30
0.0
 11
43.4523
 21
52.911
 31
0.0
  0
LINE
  8
0
 62
     0
 10
43.4523
 20
52.911
 30
0.0
 11
44.6126
 21
50.7725
 31
0.0
  0
LINE
  8
0
 62
     0
 10
44.6126
 20
50.7725
 30
0.0
 11
45.3457
 21
48.4106
 31
0.0
  0
LINE
  8
0
 62
     0
 10
45.3457
 20
48.4106
 30
0.0
 11
45.6022
 21
45.8735
 31
0.0
  0
ENDSEC
  0
EOF
