  0
SECTION
  2
HEADER
  9
$ACADVER
  1
AC1009
  9
$EXTMIN
 10
0.0
 20
0.0
 30
0.0
  9
$EXTMAX
 10
1000.0
 20
1000.0
 30
0.0
  9
$FILLMODE
 70
 0
  9
$SPLFRAME
 70
 1
  0
ENDSEC
  0
SECTION
  2
TABLES
  0
TABLE
  2
LAYER
 70
1
  0
LAYER
  2
0
 70
     0
 62
     7
  6
CONTINUOUS
  0
ENDTAB
  0
ENDSEC
  0
SECTION
  2
ENTITIES
  0
LINE
  8
0
 62
     0
 10
0.14056
 20
152.26
 30
0.0
 11
139.56
 21
152.26
 31
0.0
  0
LINE
  8
0
 62
     0
 10
139.56
 20
152.26
 30
0.0
 11
139.56
 21
0.14056
 31
0.0
  0
LINE
  8
0
 62
     0
 10
139.56
 20
0.14056
 30
0.0
 11
0.14056
 21
0.14056
 31
0.0
  0
LINE
  8
0
 62
     0
 10
0.14056
 20
0.14056
 30
0.0
 11
0.14056
 21
152.26
 31
0.0
  0
LINE
  8
0
 62
     0
 10
23.0008
 20
124.883
 30
0.0
 11
116.699
 21
124.883
 31
0.0
  0
LINE
  8
0
 62
     0
 10
116.699
 20
124.883
 30
0.0
 11
118.751
 21
124.678
 31
0.0
  0
LINE
  8
0
 62
     0
 10
118.751
 20
124.678
 30
0.0
 11
120.66
 21
124.088
 31
0.0
  0
LINE
  8
0
 62
     0
 10
120.66
 20
124.088
 30
0.0
 11
122.386
 21
123.154
 31
0.0
  0
LINE
  8
0
 62
     0
 10
122.386
 20
123.154
 30
0.0
 11
123.89
 21
121.915
 31
0.0
  0
LINE
  8
0
 62
     0
 10
123.89
 20
121.915
 30
0.0
 11
125.127
 21
120.413
 31
0.0
  0
LINE
  8
0
 62
     0
 10
125.127
 20
120.413
 30
0.0
 11
126.063
 21
118.686
 31
0.0
  0
LINE
  8
0
 62
     0
 10
126.063
 20
118.686
 30
0.0
 11
126.653
 21
116.776
 31
0.0
  0
LINE
  8
0
 62
     0
 10
126.653
 20
116.776
 30
0.0
 11
126.86
 21
114.723
 31
0.0
  0
LINE
  8
0
 62
     0
 10
126.86
 20
114.723
 30
0.0
 11
126.86
 21
27.3761
 31
0.0
  0
LINE
  8
0
 62
     0
 10
126.86
 20
27.3761
 30
0.0
 11
126.653
 21
25.3242
 31
0.0
  0
LINE
  8
0
 62
     0
 10
126.653
 20
25.3242
 30
0.0
 11
126.063
 21
23.4142
 31
0.0
  0
LINE
  8
0
 62
     0
 10
126.063
 20
23.4142
 30
0.0
 11
125.127
 21
21.6876
 31
0.0
  0
LINE
  8
0
 62
     0
 10
125.127
 20
21.6876
 30
0.0
 11
123.89
 21
20.1855
 31
0.0
  0
LINE
  8
0
 62
     0
 10
123.89
 20
20.1855
 30
0.0
 11
122.386
 21
18.9466
 31
0.0
  0
LINE
  8
0
 62
     0
 10
122.386
 20
18.9466
 30
0.0
 11
120.66
 21
18.0123
 31
0.0
  0
LINE
  8
0
 62
     0
 10
120.66
 20
18.0123
 30
0.0
 11
118.751
 21
17.4225
 31
0.0
  0
LINE
  8
0
 62
     0
 10
118.751
 20
17.4225
 30
0.0
 11
116.699
 21
17.2158
 31
0.0
  0
LINE
  8
0
 62
     0
 10
116.699
 20
17.2158
 30
0.0
 11
23.0008
 21
17.2158
 31
0.0
  0
LINE
  8
0
 62
     0
 10
23.0008
 20
17.2158
 30
0.0
 11
20.9476
 21
17.4225
 31
0.0
  0
LINE
  8
0
 62
     0
 10
20.9476
 20
17.4225
 30
0.0
 11
19.039
 21
18.0123
 31
0.0
  0
LINE
  8
0
 62
     0
 10
19.039
 20
18.0123
 30
0.0
 11
17.3123
 21
18.9466
 31
0.0
  0
LINE
  8
0
 62
     0
 10
17.3123
 20
18.9466
 30
0.0
 11
15.8102
 21
20.1855
 31
0.0
  0
LINE
  8
0
 62
     0
 10
15.8102
 20
20.1855
 30
0.0
 11
14.5714
 21
21.6876
 31
0.0
  0
LINE
  8
0
 62
     0
 10
14.5714
 20
21.6876
 30
0.0
 11
13.6357
 21
23.4142
 31
0.0
  0
LINE
  8
0
 62
     0
 10
13.6357
 20
23.4142
 30
0.0
 11
13.0459
 21
25.3242
 31
0.0
  0
LINE
  8
0
 62
     0
 10
13.0459
 20
25.3242
 30
0.0
 11
12.8405
 21
27.3761
 31
0.0
  0
LINE
  8
0
 62
     0
 10
12.8405
 20
27.3761
 30
0.0
 11
12.8405
 21
114.723
 31
0.0
  0
LINE
  8
0
 62
     0
 10
12.8405
 20
114.723
 30
0.0
 11
13.0459
 21
116.776
 31
0.0
  0
LINE
  8
0
 62
     0
 10
13.0459
 20
116.776
 30
0.0
 11
13.6357
 21
118.686
 31
0.0
  0
LINE
  8
0
 62
     0
 10
13.6357
 20
118.686
 30
0.0
 11
14.5714
 21
120.413
 31
0.0
  0
LINE
  8
0
 62
     0
 10
14.5714
 20
120.413
 30
0.0
 11
15.8102
 21
121.915
 31
0.0
  0
LINE
  8
0
 62
     0
 10
15.8102
 20
121.915
 30
0.0
 11
17.3123
 21
123.154
 31
0.0
  0
LINE
  8
0
 62
     0
 10
17.3123
 20
123.154
 30
0.0
 11
19.039
 21
124.088
 31
0.0
  0
LINE
  8
0
 62
     0
 10
19.039
 20
124.088
 30
0.0
 11
20.9476
 21
124.678
 31
0.0
  0
LINE
  8
0
 62
     0
 10
20.9476
 20
124.678
 30
0.0
 11
23.0008
 21
124.883
 31
0.0
  0
ENDSEC
  0
EOF
