  0
SECTION
  2
HEADER
  9
$ACADVER
  1
AC1009
  9
$EXTMIN
 10
0.0
 20
0.0
 30
0.0
  9
$EXTMAX
 10
1000.0
 20
1000.0
 30
0.0
  9
$FILLMODE
 70
 0
  9
$SPLFRAME
 70
 1
  0
ENDSEC
  0
SECTION
  2
TABLES
  0
TABLE
  2
LAYER
 70
1
  0
LAYER
  2
0
 70
     0
 62
     7
  6
CONTINUOUS
  0
ENDTAB
  0
ENDSEC
  0
SECTION
  2
ENTITIES
  0
LINE
  8
0
 62
     102
 10
33.6145
 20
142.103
 30
0.0
 11
30.1818
 21
141.905
 31
0.0
  0
LINE
  8
0
 62
     102
 10
30.1818
 20
141.905
 30
0.0
 11
26.8525
 21
141.319
 31
0.0
  0
LINE
  8
0
 62
     102
 10
26.8525
 20
141.319
 30
0.0
 11
23.6402
 21
140.369
 31
0.0
  0
LINE
  8
0
 62
     102
 10
23.6402
 20
140.369
 30
0.0
 11
20.5617
 21
139.069
 31
0.0
  0
LINE
  8
0
 62
     102
 10
20.5617
 20
139.069
 30
0.0
 11
17.6348
 21
137.442
 31
0.0
  0
LINE
  8
0
 62
     102
 10
17.6348
 20
137.442
 30
0.0
 11
14.8759
 21
135.504
 31
0.0
  0
LINE
  8
0
 62
     102
 10
14.8759
 20
135.504
 30
0.0
 11
12.3004
 21
133.278
 31
0.0
  0
LINE
  8
0
 62
     102
 10
12.3004
 20
133.278
 30
0.0
 11
9.926
 21
130.78
 31
0.0
  0
LINE
  8
0
 62
     102
 10
9.926
 20
130.78
 30
0.0
 11
7.76937
 21
128.032
 31
0.0
  0
LINE
  8
0
 62
     102
 10
7.76937
 20
128.032
 30
0.0
 11
5.84563
 21
125.05
 31
0.0
  0
LINE
  8
0
 62
     102
 10
5.84563
 20
125.05
 30
0.0
 11
4.17269
 21
121.856
 31
0.0
  0
LINE
  8
0
 62
     102
 10
4.17269
 20
121.856
 30
0.0
 11
2.7671
 21
118.467
 31
0.0
  0
LINE
  8
0
 62
     102
 10
2.7671
 20
118.467
 30
0.0
 11
1.64538
 21
114.905
 31
0.0
  0
LINE
  8
0
 62
     102
 10
1.64538
 20
114.905
 30
0.0
 11
0.822688
 21
111.186
 31
0.0
  0
LINE
  8
0
 62
     102
 10
0.822688
 20
111.186
 30
0.0
 11
0.316949
 21
107.33
 31
0.0
  0
LINE
  8
0
 62
     102
 10
0.316949
 20
107.33
 30
0.0
 11
0.146072
 21
103.357
 31
0.0
  0
LINE
  8
0
 62
     102
 10
0.146072
 20
103.357
 30
0.0
 11
0.146072
 21
85.6216
 31
0.0
  0
LINE
  8
0
 62
     102
 10
0.146072
 20
85.6216
 30
0.0
 11
0.136426
 21
85.6216
 31
0.0
  0
LINE
  8
0
 62
     102
 10
0.136426
 20
85.6216
 30
0.0
 11
0.136426
 21
0.136426
 31
0.0
  0
LINE
  8
0
 62
     102
 10
0.136426
 20
0.136426
 30
0.0
 11
129.403
 21
0.136426
 31
0.0
  0
LINE
  8
0
 62
     102
 10
129.403
 20
0.136426
 30
0.0
 11
129.403
 21
85.6216
 31
0.0
  0
LINE
  8
0
 62
     102
 10
129.403
 20
85.6216
 30
0.0
 11
129.395
 21
85.6216
 31
0.0
  0
LINE
  8
0
 62
     102
 10
129.395
 20
85.6216
 30
0.0
 11
129.395
 21
103.357
 31
0.0
  0
LINE
  8
0
 62
     102
 10
129.395
 20
103.357
 30
0.0
 11
129.223
 21
107.33
 31
0.0
  0
LINE
  8
0
 62
     102
 10
129.223
 20
107.33
 30
0.0
 11
128.717
 21
111.186
 31
0.0
  0
LINE
  8
0
 62
     102
 10
128.717
 20
111.186
 30
0.0
 11
127.894
 21
114.905
 31
0.0
  0
LINE
  8
0
 62
     102
 10
127.894
 20
114.905
 30
0.0
 11
126.772
 21
118.467
 31
0.0
  0
LINE
  8
0
 62
     102
 10
126.772
 20
118.467
 30
0.0
 11
125.366
 21
121.856
 31
0.0
  0
LINE
  8
0
 62
     102
 10
125.366
 20
121.856
 30
0.0
 11
123.693
 21
125.05
 31
0.0
  0
LINE
  8
0
 62
     102
 10
123.693
 20
125.05
 30
0.0
 11
121.77
 21
128.032
 31
0.0
  0
LINE
  8
0
 62
     102
 10
121.77
 20
128.032
 30
0.0
 11
119.612
 21
130.78
 31
0.0
  0
LINE
  8
0
 62
     102
 10
119.612
 20
130.78
 30
0.0
 11
117.238
 21
133.278
 31
0.0
  0
LINE
  8
0
 62
     102
 10
117.238
 20
133.278
 30
0.0
 11
114.662
 21
135.504
 31
0.0
  0
LINE
  8
0
 62
     102
 10
114.662
 20
135.504
 30
0.0
 11
111.904
 21
137.442
 31
0.0
  0
LINE
  8
0
 62
     102
 10
111.904
 20
137.442
 30
0.0
 11
108.977
 21
139.069
 31
0.0
  0
LINE
  8
0
 62
     102
 10
108.977
 20
139.069
 30
0.0
 11
105.898
 21
140.369
 31
0.0
  0
LINE
  8
0
 62
     102
 10
105.898
 20
140.369
 30
0.0
 11
102.686
 21
141.319
 31
0.0
  0
LINE
  8
0
 62
     102
 10
102.686
 20
141.319
 30
0.0
 11
99.3567
 21
141.905
 31
0.0
  0
LINE
  8
0
 62
     102
 10
99.3567
 20
141.905
 30
0.0
 11
95.9252
 21
142.103
 31
0.0
  0
LINE
  8
0
 62
     102
 10
95.9252
 20
142.103
 30
0.0
 11
33.6145
 21
142.103
 31
0.0
  0
LINE
  8
0
 62
     0
 10
33.6145
 20
142.103
 30
0.0
 11
30.1818
 21
141.905
 31
0.0
  0
LINE
  8
0
 62
     0
 10
30.1818
 20
141.905
 30
0.0
 11
26.8525
 21
141.319
 31
0.0
  0
LINE
  8
0
 62
     0
 10
26.8525
 20
141.319
 30
0.0
 11
23.6402
 21
140.369
 31
0.0
  0
LINE
  8
0
 62
     0
 10
23.6402
 20
140.369
 30
0.0
 11
20.5617
 21
139.069
 31
0.0
  0
LINE
  8
0
 62
     0
 10
20.5617
 20
139.069
 30
0.0
 11
17.6348
 21
137.442
 31
0.0
  0
LINE
  8
0
 62
     0
 10
17.6348
 20
137.442
 30
0.0
 11
14.8759
 21
135.504
 31
0.0
  0
LINE
  8
0
 62
     0
 10
14.8759
 20
135.504
 30
0.0
 11
12.3004
 21
133.278
 31
0.0
  0
LINE
  8
0
 62
     0
 10
12.3004
 20
133.278
 30
0.0
 11
9.926
 21
130.78
 31
0.0
  0
LINE
  8
0
 62
     0
 10
9.926
 20
130.78
 30
0.0
 11
7.76937
 21
128.032
 31
0.0
  0
LINE
  8
0
 62
     0
 10
7.76937
 20
128.032
 30
0.0
 11
5.84563
 21
125.05
 31
0.0
  0
LINE
  8
0
 62
     0
 10
5.84563
 20
125.05
 30
0.0
 11
4.17269
 21
121.856
 31
0.0
  0
LINE
  8
0
 62
     0
 10
4.17269
 20
121.856
 30
0.0
 11
2.7671
 21
118.467
 31
0.0
  0
LINE
  8
0
 62
     0
 10
2.7671
 20
118.467
 30
0.0
 11
1.64538
 21
114.905
 31
0.0
  0
LINE
  8
0
 62
     0
 10
1.64538
 20
114.905
 30
0.0
 11
0.822688
 21
111.186
 31
0.0
  0
LINE
  8
0
 62
     0
 10
0.822688
 20
111.186
 30
0.0
 11
0.316949
 21
107.33
 31
0.0
  0
LINE
  8
0
 62
     0
 10
0.316949
 20
107.33
 30
0.0
 11
0.146072
 21
103.357
 31
0.0
  0
LINE
  8
0
 62
     0
 10
0.146072
 20
103.357
 30
0.0
 11
0.146072
 21
85.6216
 31
0.0
  0
LINE
  8
0
 62
     0
 10
0.146072
 20
85.6216
 30
0.0
 11
0.136426
 21
85.6216
 31
0.0
  0
LINE
  8
0
 62
     0
 10
0.136426
 20
85.6216
 30
0.0
 11
0.136426
 21
0.136426
 31
0.0
  0
LINE
  8
0
 62
     0
 10
0.136426
 20
0.136426
 30
0.0
 11
129.403
 21
0.136426
 31
0.0
  0
LINE
  8
0
 62
     0
 10
129.403
 20
0.136426
 30
0.0
 11
129.403
 21
85.6216
 31
0.0
  0
LINE
  8
0
 62
     0
 10
129.403
 20
85.6216
 30
0.0
 11
129.395
 21
85.6216
 31
0.0
  0
LINE
  8
0
 62
     0
 10
129.395
 20
85.6216
 30
0.0
 11
129.395
 21
103.357
 31
0.0
  0
LINE
  8
0
 62
     0
 10
129.395
 20
103.357
 30
0.0
 11
129.223
 21
107.33
 31
0.0
  0
LINE
  8
0
 62
     0
 10
129.223
 20
107.33
 30
0.0
 11
128.717
 21
111.186
 31
0.0
  0
LINE
  8
0
 62
     0
 10
128.717
 20
111.186
 30
0.0
 11
127.894
 21
114.905
 31
0.0
  0
LINE
  8
0
 62
     0
 10
127.894
 20
114.905
 30
0.0
 11
126.772
 21
118.467
 31
0.0
  0
LINE
  8
0
 62
     0
 10
126.772
 20
118.467
 30
0.0
 11
125.366
 21
121.856
 31
0.0
  0
LINE
  8
0
 62
     0
 10
125.366
 20
121.856
 30
0.0
 11
123.693
 21
125.05
 31
0.0
  0
LINE
  8
0
 62
     0
 10
123.693
 20
125.05
 30
0.0
 11
121.77
 21
128.032
 31
0.0
  0
LINE
  8
0
 62
     0
 10
121.77
 20
128.032
 30
0.0
 11
119.612
 21
130.78
 31
0.0
  0
LINE
  8
0
 62
     0
 10
119.612
 20
130.78
 30
0.0
 11
117.238
 21
133.278
 31
0.0
  0
LINE
  8
0
 62
     0
 10
117.238
 20
133.278
 30
0.0
 11
114.662
 21
135.504
 31
0.0
  0
LINE
  8
0
 62
     0
 10
114.662
 20
135.504
 30
0.0
 11
111.904
 21
137.442
 31
0.0
  0
LINE
  8
0
 62
     0
 10
111.904
 20
137.442
 30
0.0
 11
108.977
 21
139.069
 31
0.0
  0
LINE
  8
0
 62
     0
 10
108.977
 20
139.069
 30
0.0
 11
105.898
 21
140.369
 31
0.0
  0
LINE
  8
0
 62
     0
 10
105.898
 20
140.369
 30
0.0
 11
102.686
 21
141.319
 31
0.0
  0
LINE
  8
0
 62
     0
 10
102.686
 20
141.319
 30
0.0
 11
99.3567
 21
141.905
 31
0.0
  0
LINE
  8
0
 62
     0
 10
99.3567
 20
141.905
 30
0.0
 11
95.9252
 21
142.103
 31
0.0
  0
LINE
  8
0
 62
     0
 10
95.9252
 20
142.103
 30
0.0
 11
33.6145
 21
142.103
 31
0.0
  0
ENDSEC
  0
EOF
