  0
SECTION
  2
HEADER
  9
$ACADVER
  1
AC1009
  9
$EXTMIN
 10
0.0
 20
0.0
 30
0.0
  9
$EXTMAX
 10
1000.0
 20
1000.0
 30
0.0
  9
$FILLMODE
 70
 0
  9
$SPLFRAME
 70
 1
  0
ENDSEC
  0
SECTION
  2
TABLES
  0
TABLE
  2
LAYER
 70
1
  0
LAYER
  2
0
 70
     0
 62
     7
  6
CONTINUOUS
  0
ENDTAB
  0
ENDSEC
  0
SECTION
  2
ENTITIES
  0
LINE
  8
0
 62
     0
 10
63.923
 20
120.028
 30
0.0
 11
63.923
 21
19.0445
 31
0.0
  0
LINE
  8
0
 62
     0
 10
63.923
 20
19.0445
 30
0.0
 11
101.46
 21
19.0445
 31
0.0
  0
LINE
  8
0
 62
     0
 10
101.46
 20
19.0445
 30
0.0
 11
101.46
 21
18.2039
 31
0.0
  0
LINE
  8
0
 62
     0
 10
101.46
 20
18.2039
 30
0.0
 11
117.828
 21
18.2039
 31
0.0
  0
LINE
  8
0
 62
     0
 10
117.828
 20
18.2039
 30
0.0
 11
117.828
 21
19.0445
 31
0.0
  0
LINE
  8
0
 62
     0
 10
117.828
 20
19.0445
 30
0.0
 11
129.399
 21
19.0445
 31
0.0
  0
LINE
  8
0
 62
     0
 10
129.399
 20
19.0445
 30
0.0
 11
129.399
 21
18.2039
 31
0.0
  0
LINE
  8
0
 62
     0
 10
129.399
 20
18.2039
 30
0.0
 11
162.701
 21
18.2039
 31
0.0
  0
LINE
  8
0
 62
     0
 10
162.701
 20
18.2039
 30
0.0
 11
162.701
 21
19.0445
 31
0.0
  0
LINE
  8
0
 62
     0
 10
162.701
 20
19.0445
 30
0.0
 11
228.74
 21
19.0445
 31
0.0
  0
LINE
  8
0
 62
     0
 10
228.74
 20
19.0445
 30
0.0
 11
228.74
 21
120.028
 31
0.0
  0
LINE
  8
0
 62
     0
 10
228.74
 20
120.028
 30
0.0
 11
63.923
 21
120.028
 31
0.0
  0
LINE
  8
0
 62
     0
 10
42.7411
 20
106.821
 30
0.0
 11
42.1323
 21
103.808
 31
0.0
  0
LINE
  8
0
 62
     0
 10
42.1323
 20
103.808
 30
0.0
 11
40.4717
 21
101.345
 31
0.0
  0
LINE
  8
0
 62
     0
 10
40.4717
 20
101.345
 30
0.0
 11
38.009
 21
99.6844
 31
0.0
  0
LINE
  8
0
 62
     0
 10
38.009
 20
99.6844
 30
0.0
 11
34.9953
 21
99.0755
 31
0.0
  0
LINE
  8
0
 62
     0
 10
34.9953
 20
99.0755
 30
0.0
 11
31.9801
 21
99.6844
 31
0.0
  0
LINE
  8
0
 62
     0
 10
31.9801
 20
99.6844
 30
0.0
 11
29.5176
 21
101.345
 31
0.0
  0
LINE
  8
0
 62
     0
 10
29.5176
 20
101.345
 30
0.0
 11
27.857
 21
103.808
 31
0.0
  0
LINE
  8
0
 62
     0
 10
27.857
 20
103.808
 30
0.0
 11
27.2493
 21
106.821
 31
0.0
  0
LINE
  8
0
 62
     0
 10
27.2493
 20
106.821
 30
0.0
 11
27.857
 21
109.837
 31
0.0
  0
LINE
  8
0
 62
     0
 10
27.857
 20
109.837
 30
0.0
 11
29.5176
 21
112.299
 31
0.0
  0
LINE
  8
0
 62
     0
 10
29.5176
 20
112.299
 30
0.0
 11
31.9801
 21
113.96
 31
0.0
  0
LINE
  8
0
 62
     0
 10
31.9801
 20
113.96
 30
0.0
 11
34.9953
 21
114.567
 31
0.0
  0
LINE
  8
0
 62
     0
 10
34.9953
 20
114.567
 30
0.0
 11
38.009
 21
113.96
 31
0.0
  0
LINE
  8
0
 62
     0
 10
38.009
 20
113.96
 30
0.0
 11
40.4717
 21
112.299
 31
0.0
  0
LINE
  8
0
 62
     0
 10
40.4717
 20
112.299
 30
0.0
 11
42.1323
 21
109.837
 31
0.0
  0
LINE
  8
0
 62
     0
 10
42.1323
 20
109.837
 30
0.0
 11
42.7411
 21
106.821
 31
0.0
  0
LINE
  8
0
 62
     0
 10
0.14056
 20
139.56
 30
0.0
 11
291.96
 21
139.56
 31
0.0
  0
LINE
  8
0
 62
     0
 10
291.96
 20
139.56
 30
0.0
 11
291.96
 21
0.14056
 31
0.0
  0
LINE
  8
0
 62
     0
 10
291.96
 20
0.14056
 30
0.0
 11
0.14056
 21
0.14056
 31
0.0
  0
LINE
  8
0
 62
     0
 10
0.14056
 20
0.14056
 30
0.0
 11
0.14056
 21
139.56
 31
0.0
  0
ENDSEC
  0
EOF
