  0
SECTION
  2
HEADER
  9
$ACADVER
  1
AC1009
  9
$EXTMIN
 10
0.0
 20
0.0
 30
0.0
  9
$EXTMAX
 10
1000.0
 20
1000.0
 30
0.0
  9
$FILLMODE
 70
 0
  9
$SPLFRAME
 70
 1
  0
ENDSEC
  0
SECTION
  2
TABLES
  0
TABLE
  2
LAYER
 70
1
  0
LAYER
  2
0
 70
     0
 62
     7
  6
CONTINUOUS
  0
ENDTAB
  0
ENDSEC
  0
SECTION
  2
ENTITIES
  0
LINE
  8
0
 62
     0
 10
57.4435
 20
119.874
 30
0.0
 11
222.262
 21
119.874
 31
0.0
  0
LINE
  8
0
 62
     0
 10
222.262
 20
119.874
 30
0.0
 11
222.262
 21
19.1905
 31
0.0
  0
LINE
  8
0
 62
     0
 10
222.262
 20
19.1905
 30
0.0
 11
57.4435
 21
19.1905
 31
0.0
  0
LINE
  8
0
 62
     0
 10
57.4435
 20
19.1905
 30
0.0
 11
57.4435
 21
119.874
 31
0.0
  0
LINE
  8
0
 62
     0
 10
0.14056
 20
139.56
 30
0.0
 11
279.26
 21
139.56
 31
0.0
  0
LINE
  8
0
 62
     0
 10
279.26
 20
139.56
 30
0.0
 11
279.26
 21
0.14056
 31
0.0
  0
LINE
  8
0
 62
     0
 10
279.26
 20
0.14056
 30
0.0
 11
0.14056
 21
0.14056
 31
0.0
  0
LINE
  8
0
 62
     0
 10
0.14056
 20
0.14056
 30
0.0
 11
0.14056
 21
139.56
 31
0.0
  0
LINE
  8
0
 62
     0
 10
42.4737
 20
106.821
 30
0.0
 11
42.1929
 21
104.035
 31
0.0
  0
LINE
  8
0
 62
     0
 10
42.1929
 20
104.035
 30
0.0
 11
41.3865
 21
101.439
 31
0.0
  0
LINE
  8
0
 62
     0
 10
41.3865
 20
101.439
 30
0.0
 11
40.1119
 21
99.0907
 31
0.0
  0
LINE
  8
0
 62
     0
 10
40.1119
 20
99.0907
 30
0.0
 11
38.4224
 21
97.0442
 31
0.0
  0
LINE
  8
0
 62
     0
 10
38.4224
 20
97.0442
 30
0.0
 11
36.376
 21
95.3548
 31
0.0
  0
LINE
  8
0
 62
     0
 10
36.376
 20
95.3548
 30
0.0
 11
34.0279
 21
94.0802
 31
0.0
  0
LINE
  8
0
 62
     0
 10
34.0279
 20
94.0802
 30
0.0
 11
31.4317
 21
93.2737
 31
0.0
  0
LINE
  8
0
 62
     0
 10
31.4317
 20
93.2737
 30
0.0
 11
28.6453
 21
92.9929
 31
0.0
  0
LINE
  8
0
 62
     0
 10
28.6453
 20
92.9929
 30
0.0
 11
25.8575
 21
93.2737
 31
0.0
  0
LINE
  8
0
 62
     0
 10
25.8575
 20
93.2737
 30
0.0
 11
23.2627
 21
94.0802
 31
0.0
  0
LINE
  8
0
 62
     0
 10
23.2627
 20
94.0802
 30
0.0
 11
20.9131
 21
95.3548
 31
0.0
  0
LINE
  8
0
 62
     0
 10
20.9131
 20
95.3548
 30
0.0
 11
18.8667
 21
97.0442
 31
0.0
  0
LINE
  8
0
 62
     0
 10
18.8667
 20
97.0442
 30
0.0
 11
17.1772
 21
99.0907
 31
0.0
  0
LINE
  8
0
 62
     0
 10
17.1772
 20
99.0907
 30
0.0
 11
15.9026
 21
101.439
 31
0.0
  0
LINE
  8
0
 62
     0
 10
15.9026
 20
101.439
 30
0.0
 11
15.0964
 21
104.035
 31
0.0
  0
LINE
  8
0
 62
     0
 10
15.0964
 20
104.035
 30
0.0
 11
14.8167
 21
106.821
 31
0.0
  0
LINE
  8
0
 62
     0
 10
14.8167
 20
106.821
 30
0.0
 11
15.0964
 21
109.609
 31
0.0
  0
LINE
  8
0
 62
     0
 10
15.0964
 20
109.609
 30
0.0
 11
15.9026
 21
112.204
 31
0.0
  0
LINE
  8
0
 62
     0
 10
15.9026
 20
112.204
 30
0.0
 11
17.1772
 21
114.554
 31
0.0
  0
LINE
  8
0
 62
     0
 10
17.1772
 20
114.554
 30
0.0
 11
18.8667
 21
116.6
 31
0.0
  0
LINE
  8
0
 62
     0
 10
18.8667
 20
116.6
 30
0.0
 11
20.9131
 21
118.29
 31
0.0
  0
LINE
  8
0
 62
     0
 10
20.9131
 20
118.29
 30
0.0
 11
23.2627
 21
119.564
 31
0.0
  0
LINE
  8
0
 62
     0
 10
23.2627
 20
119.564
 30
0.0
 11
25.8575
 21
120.37
 31
0.0
  0
LINE
  8
0
 62
     0
 10
25.8575
 20
120.37
 30
0.0
 11
28.6453
 21
120.65
 31
0.0
  0
LINE
  8
0
 62
     0
 10
28.6453
 20
120.65
 30
0.0
 11
31.4317
 21
120.37
 31
0.0
  0
LINE
  8
0
 62
     0
 10
31.4317
 20
120.37
 30
0.0
 11
34.0279
 21
119.564
 31
0.0
  0
LINE
  8
0
 62
     0
 10
34.0279
 20
119.564
 30
0.0
 11
36.376
 21
118.29
 31
0.0
  0
LINE
  8
0
 62
     0
 10
36.376
 20
118.29
 30
0.0
 11
38.4224
 21
116.6
 31
0.0
  0
LINE
  8
0
 62
     0
 10
38.4224
 20
116.6
 30
0.0
 11
40.1119
 21
114.554
 31
0.0
  0
LINE
  8
0
 62
     0
 10
40.1119
 20
114.554
 30
0.0
 11
41.3865
 21
112.204
 31
0.0
  0
LINE
  8
0
 62
     0
 10
41.3865
 20
112.204
 30
0.0
 11
42.1929
 21
109.609
 31
0.0
  0
LINE
  8
0
 62
     0
 10
42.1929
 20
109.609
 30
0.0
 11
42.4737
 21
106.821
 31
0.0
  0
ENDSEC
  0
EOF
