  0
SECTION
  2
HEADER
  9
$ACADVER
  1
AC1009
  9
$EXTMIN
 10
0.0
 20
0.0
 30
0.0
  9
$EXTMAX
 10
1000.0
 20
1000.0
 30
0.0
  9
$FILLMODE
 70
 0
  9
$SPLFRAME
 70
 1
  0
ENDSEC
  0
SECTION
  2
TABLES
  0
TABLE
  2
LAYER
 70
1
  0
LAYER
  2
0
 70
     0
 62
     7
  6
CONTINUOUS
  0
ENDTAB
  0
ENDSEC
  0
SECTION
  2
ENTITIES
  0
LINE
  8
0
 62
     0
 10
63.7935
 20
119.874
 30
0.0
 11
228.612
 21
119.874
 31
0.0
  0
LINE
  8
0
 62
     0
 10
228.612
 20
119.874
 30
0.0
 11
228.612
 21
19.1905
 31
0.0
  0
LINE
  8
0
 62
     0
 10
228.612
 20
19.1905
 30
0.0
 11
63.7935
 21
19.1905
 31
0.0
  0
LINE
  8
0
 62
     0
 10
63.7935
 20
19.1905
 30
0.0
 11
63.7935
 21
119.874
 31
0.0
  0
LINE
  8
0
 62
     0
 10
0.14056
 20
139.56
 30
0.0
 11
291.96
 21
139.56
 31
0.0
  0
LINE
  8
0
 62
     0
 10
291.96
 20
139.56
 30
0.0
 11
291.96
 21
0.14056
 31
0.0
  0
LINE
  8
0
 62
     0
 10
291.96
 20
0.14056
 30
0.0
 11
0.14056
 21
0.14056
 31
0.0
  0
LINE
  8
0
 62
     0
 10
0.14056
 20
0.14056
 30
0.0
 11
0.14056
 21
139.56
 31
0.0
  0
LINE
  8
0
 62
     0
 10
48.8237
 20
106.821
 30
0.0
 11
48.5429
 21
104.035
 31
0.0
  0
LINE
  8
0
 62
     0
 10
48.5429
 20
104.035
 30
0.0
 11
47.7365
 21
101.439
 31
0.0
  0
LINE
  8
0
 62
     0
 10
47.7365
 20
101.439
 30
0.0
 11
46.4619
 21
99.0907
 31
0.0
  0
LINE
  8
0
 62
     0
 10
46.4619
 20
99.0907
 30
0.0
 11
44.7724
 21
97.0442
 31
0.0
  0
LINE
  8
0
 62
     0
 10
44.7724
 20
97.0442
 30
0.0
 11
42.726
 21
95.3548
 31
0.0
  0
LINE
  8
0
 62
     0
 10
42.726
 20
95.3548
 30
0.0
 11
40.3779
 21
94.0802
 31
0.0
  0
LINE
  8
0
 62
     0
 10
40.3779
 20
94.0802
 30
0.0
 11
37.7818
 21
93.2737
 31
0.0
  0
LINE
  8
0
 62
     0
 10
37.7818
 20
93.2737
 30
0.0
 11
34.9953
 21
92.9929
 31
0.0
  0
LINE
  8
0
 62
     0
 10
34.9953
 20
92.9929
 30
0.0
 11
32.2075
 21
93.2737
 31
0.0
  0
LINE
  8
0
 62
     0
 10
32.2075
 20
93.2737
 30
0.0
 11
29.6127
 21
94.0802
 31
0.0
  0
LINE
  8
0
 62
     0
 10
29.6127
 20
94.0802
 30
0.0
 11
27.2631
 21
95.3548
 31
0.0
  0
LINE
  8
0
 62
     0
 10
27.2631
 20
95.3548
 30
0.0
 11
25.2167
 21
97.0442
 31
0.0
  0
LINE
  8
0
 62
     0
 10
25.2167
 20
97.0442
 30
0.0
 11
23.5272
 21
99.0907
 31
0.0
  0
LINE
  8
0
 62
     0
 10
23.5272
 20
99.0907
 30
0.0
 11
22.2526
 21
101.439
 31
0.0
  0
LINE
  8
0
 62
     0
 10
22.2526
 20
101.439
 30
0.0
 11
21.4464
 21
104.035
 31
0.0
  0
LINE
  8
0
 62
     0
 10
21.4464
 20
104.035
 30
0.0
 11
21.1667
 21
106.821
 31
0.0
  0
LINE
  8
0
 62
     0
 10
21.1667
 20
106.821
 30
0.0
 11
21.4464
 21
109.609
 31
0.0
  0
LINE
  8
0
 62
     0
 10
21.4464
 20
109.609
 30
0.0
 11
22.2526
 21
112.204
 31
0.0
  0
LINE
  8
0
 62
     0
 10
22.2526
 20
112.204
 30
0.0
 11
23.5272
 21
114.554
 31
0.0
  0
LINE
  8
0
 62
     0
 10
23.5272
 20
114.554
 30
0.0
 11
25.2167
 21
116.6
 31
0.0
  0
LINE
  8
0
 62
     0
 10
25.2167
 20
116.6
 30
0.0
 11
27.2631
 21
118.29
 31
0.0
  0
LINE
  8
0
 62
     0
 10
27.2631
 20
118.29
 30
0.0
 11
29.6127
 21
119.564
 31
0.0
  0
LINE
  8
0
 62
     0
 10
29.6127
 20
119.564
 30
0.0
 11
32.2075
 21
120.37
 31
0.0
  0
LINE
  8
0
 62
     0
 10
32.2075
 20
120.37
 30
0.0
 11
34.9953
 21
120.65
 31
0.0
  0
LINE
  8
0
 62
     0
 10
34.9953
 20
120.65
 30
0.0
 11
37.7818
 21
120.37
 31
0.0
  0
LINE
  8
0
 62
     0
 10
37.7818
 20
120.37
 30
0.0
 11
40.3779
 21
119.564
 31
0.0
  0
LINE
  8
0
 62
     0
 10
40.3779
 20
119.564
 30
0.0
 11
42.726
 21
118.29
 31
0.0
  0
LINE
  8
0
 62
     0
 10
42.726
 20
118.29
 30
0.0
 11
44.7724
 21
116.6
 31
0.0
  0
LINE
  8
0
 62
     0
 10
44.7724
 20
116.6
 30
0.0
 11
46.4619
 21
114.554
 31
0.0
  0
LINE
  8
0
 62
     0
 10
46.4619
 20
114.554
 30
0.0
 11
47.7365
 21
112.204
 31
0.0
  0
LINE
  8
0
 62
     0
 10
47.7365
 20
112.204
 30
0.0
 11
48.5429
 21
109.609
 31
0.0
  0
LINE
  8
0
 62
     0
 10
48.5429
 20
109.609
 30
0.0
 11
48.8237
 21
106.821
 31
0.0
  0
ENDSEC
  0
EOF
